<svg xmlns="http://www.w3.org/2000/svg" width="25" height="22" viewBox="0 0 25 22" fill="none">
<path d="M19.0053 21.5173H0.473389C0.473389 21.4282 0.473389 21.3391 0.473389 21.25C1.00796 19.2008 1.80984 17.3298 3.32446 15.7261C5.10638 13.9442 7.24463 13.2314 9.73931 13.2314C12.234 13.2314 14.5505 13.9442 16.2433 15.9043C17.5798 17.3298 18.3816 19.0225 18.8271 20.8935C18.8271 20.9826 18.9162 21.1609 18.9162 21.25C18.9162 21.3391 19.0053 21.4282 19.0053 21.5173Z" fill="#631363"/>
<path d="M9.73959 0.401392C12.7688 0.401392 15.2635 2.89625 15.2635 5.9255C15.2635 9.04385 12.7688 11.5384 9.73959 11.5384C6.71033 11.5384 4.21569 9.04372 4.21569 6.01447C4.1266 2.80702 6.62123 0.312296 9.73959 0.401392Z" fill="#631363"/>
<path d="M21.8564 9.93465C21.8564 10.2019 21.8564 10.5583 21.8564 10.8256C21.8564 11.182 21.9455 11.1819 22.2128 11.1819C22.8364 11.1819 23.4601 11.1819 23.9947 11.1819C24.5292 11.1819 24.8856 11.5382 24.8856 11.9837C24.8856 12.4292 24.5292 12.7857 23.9947 12.7857C23.371 12.7857 22.7474 12.7857 22.1237 12.7857C21.8564 12.7857 21.8564 12.8748 21.8564 13.053C21.8564 13.6767 21.8564 14.3002 21.8564 14.9239C21.8564 15.4585 21.5 15.8148 21.0545 15.8148C20.609 15.8148 20.2527 15.4585 20.2527 14.9239C20.2527 14.3002 20.2527 13.6767 20.2527 13.053C20.2527 12.7857 20.1636 12.6965 19.8963 12.6965C19.2726 12.6965 18.649 12.6965 18.0253 12.6965C17.4016 12.6965 16.9561 12.0728 17.2234 11.5382C17.4016 11.1818 17.6689 11.0927 18.0253 11.0927C18.649 11.0927 19.3617 11.0927 19.9854 11.0927C20.2527 11.0927 20.3418 11.0038 20.2527 10.8256C20.2527 10.2019 20.2527 9.489 20.2527 8.86533C20.2527 8.41985 20.5199 8.15265 20.8763 8.06356C21.2327 7.97446 21.5891 8.0636 21.7673 8.33089C21.8564 8.50908 21.9455 8.59817 21.9455 8.77636C21.9455 8.95456 21.9455 9.13262 21.9455 9.31081C21.8564 9.5781 21.8564 9.75646 21.8564 9.93465Z" fill="#631363"/>
</svg>