<svg width="16" height="17" viewBox="0 0 16 17" fill="none" xmlns="http://www.w3.org/2000/svg">
<path d="M5.88854 16.1001C4.63761 16.1001 3.38672 15.6145 2.40943 14.6028C0.493937 12.6199 0.493937 9.38252 2.40943 7.39961L8.3123 1.28904C9.60232 -0.0463805 11.8696 -0.0463805 13.1596 1.28904C14.4887 2.66494 14.4887 4.93107 13.1596 6.30696L7.25675 12.4176C6.51401 13.1865 5.22414 13.1865 4.4814 12.4176C3.69956 11.6082 3.69956 10.3537 4.4814 9.54436L8.97693 4.8906C9.17239 4.68827 9.48505 4.68827 9.6805 4.8906C9.87596 5.09294 9.87596 5.4167 9.6805 5.61904L5.18497 10.2728C4.79405 10.6775 4.79405 11.3249 5.18497 11.7296C5.53679 12.0938 6.20139 12.0938 6.5923 11.7296L12.4952 5.61904C13.4334 4.64782 13.4334 3.02911 12.4952 2.01743C11.557 1.04621 9.95407 1.04621 9.01587 2.01743L3.11319 8.128C1.58862 9.70623 1.58862 12.2962 3.11319 13.8744C4.63776 15.4526 7.13951 15.4526 8.66408 13.8744L14.567 7.76383C14.7624 7.56149 15.0751 7.56149 15.2705 7.76383C15.466 7.96617 15.466 8.28988 15.2705 8.49221L9.36785 14.6028C8.35146 15.6549 7.10038 16.1001 5.88854 16.1001Z" fill="#631363"/>
</svg>
