<svg width="25" height="24" viewBox="0 0 25 24" fill="none" xmlns="http://www.w3.org/2000/svg">
<path d="M16.0679 7.84657C16.0679 6.25234 14.7693 4.957 13.171 4.957H5.67903C4.08074 4.957 2.78197 6.25234 2.78197 7.84657V22.8921H0.484619V23.5896H18.3655V22.8921H16.0679V7.84657ZM8.57584 6.55124H10.274V8.74332H8.57584V6.55124ZM8.57584 9.83936H10.274V12.0314H8.57584V9.83936ZM8.57584 13.0278H10.274V15.2199H8.57584V13.0278ZM8.57584 16.3159H10.274V18.508H8.57584V16.3159ZM6.57798 18.508H4.87983V16.3159H6.57798V18.508ZM6.57798 15.2199H4.87983V13.0278H6.57798V15.2199ZM6.57798 12.0314H4.87983V9.83936H6.57798V12.0314ZM6.57798 8.74332H4.87983V6.55124H6.57798V8.74332ZM11.3729 22.8921H7.37717V20.1022H11.3729V22.8921ZM13.9702 18.508H12.2719V16.3159H13.9702V18.508ZM13.9702 15.2199H12.2719V13.0278H13.9702V15.2199ZM13.9702 12.0314H12.2719V9.83936H13.9702V12.0314ZM13.9702 8.74332H12.2719V6.55124H13.9702V8.74332ZM22.7607 18.7073V3.6617C22.7607 2.06746 21.4622 0.772156 19.8639 0.772156H12.3718C10.7736 0.772156 9.47503 2.06746 9.47503 3.6617V4.35919H11.5726V2.36639H13.2708V4.35919C13.5705 4.35919 13.7703 4.35916 14.07 4.4588V2.36639H15.7681V4.55845H14.5695C15.4685 4.95701 16.2676 5.75413 16.5673 6.65088V5.55484H18.2655V7.74692H16.7671V8.84297H18.2655V11.035H16.7671V12.1311H18.2655V14.3231H16.7671V15.9173H18.1657V18.7073H16.7671V19.4047H24.4591V18.7073H22.7607ZM18.9649 2.36639H20.6631V4.55845H18.9649V2.36639ZM18.9649 5.65449H20.6631V7.84657H18.9649V5.65449ZM18.9649 8.94258H20.6631V11.1347H18.9649V8.94258ZM18.9649 12.2307H20.6631V14.4228H18.9649V12.2307ZM16.4676 4.65809V2.46601H18.1657V4.65809H16.4676Z" fill="#F4F4F4"/>
</svg>
