<svg width="13" height="14" viewBox="0 0 13 14" fill="none" xmlns="http://www.w3.org/2000/svg">
<path d="M12.4869 12.9727C12.0873 13.3713 11.3881 13.3713 10.9885 12.9727L6.39328 8.38929L1.79833 12.9727C1.39875 13.3713 0.699499 13.3713 0.299925 12.9727C-0.0996493 12.5742 -0.0996493 11.8767 0.299925 11.4781L4.89488 6.8947L0.299925 2.31127C-0.0996493 1.91271 -0.0996493 1.21524 0.299925 0.81668C0.699499 0.418122 1.39875 0.418122 1.79833 0.81668L6.39328 5.40011L10.9885 0.81668C11.3881 0.418122 12.0873 0.418122 12.4869 0.81668C12.8865 1.21524 12.8865 1.91271 12.4869 2.31127L7.89168 6.8947L12.4869 11.4781C12.8865 11.8767 12.8865 12.5742 12.4869 12.9727Z" fill="#6D6D6D"/>
</svg>
