<svg width="37" height="37" viewBox="0 0 37 37" fill="none" xmlns="http://www.w3.org/2000/svg">
<path d="M23.1997 13.1001L15.3997 20.9L12.4998 18C11.7998 17.3 10.5998 17.1001 9.99976 17.7001C9.29976 18.4001 9.09971 19.6001 9.69971 20.2001L9.99976 20.5L14.2998 24.8001C14.6998 25.2001 14.9996 25.3001 15.5996 25.3001C16.0996 25.3001 16.4997 25.0001 16.8997 24.8001L25.8997 15.8001C26.5997 15.1001 26.5997 13.9001 25.8997 13.3001C25.0997 12.4001 23.7997 12.4001 23.1997 13.1001ZM18.1997 0.800049C8.39971 0.800049 0.299805 8.90006 0.299805 18.7001C0.299805 28.5001 8.39971 36.6001 18.1997 36.6001C27.9997 36.6001 36.0996 28.5001 36.0996 18.7001C36.0996 8.90006 28.2997 0.800049 18.1997 0.800049ZM18.1997 33.3001C10.3997 33.3001 3.89966 26.8 3.89966 19C3.89966 11.2 10.3997 4.70006 18.1997 4.70006C25.9997 4.70006 32.4998 11.2 32.4998 19C32.4998 26.7 26.0997 33.3001 18.1997 33.3001Z" fill="#40F440"/>
</svg>
