<svg width="23" height="22" viewBox="0 0 23 22" fill="none" xmlns="http://www.w3.org/2000/svg">
<path d="M21.6995 20.2002C21.6995 20.9002 21.0994 21.5002 20.3994 21.5002H2.19946C1.49946 21.5002 0.899414 20.9002 0.899414 20.2002V2.00024C0.899414 1.30024 1.49946 0.700195 2.19946 0.700195H20.3994C21.0994 0.700195 21.6995 1.30024 21.6995 2.00024V20.2002Z" stroke="#007BB5" stroke-miterlimit="10"/>
<path d="M7.99927 7.90027H5.39941V17.0002H7.99927V7.90027Z" fill="#007BB5"/>
<path d="M14.1995 7.90027C12.3995 7.90027 12.0994 8.6002 11.8994 9.2002V7.90027H9.29932V17.0002H11.8994V11.8002C11.8994 11.0002 12.3995 10.5002 13.1995 10.5002C13.9995 10.5002 14.4993 10.9002 14.4993 11.8002V17.0002H17.0994V12.4003C17.0994 9.80027 16.7995 7.90027 14.1995 7.90027Z" fill="#007BB5"/>
<path d="M6.69946 7.2002C7.41743 7.2002 7.99927 6.61824 7.99927 5.90027C7.99927 5.1823 7.41743 4.60022 6.69946 4.60022C5.98149 4.60022 5.39941 5.1823 5.39941 5.90027C5.39941 6.61824 5.98149 7.2002 6.69946 7.2002Z" fill="#007BB5"/>
</svg>
