<svg width="36" height="30" viewBox="0 0 36 30" fill="none" xmlns="http://www.w3.org/2000/svg">
<path d="M34.7999 15.8001L31.5001 19.1001C31.3001 19.3001 31.0999 19.4001 30.7999 19.4001C30.4999 19.4001 30.3002 19.3001 30.1002 19.1001L26.8002 15.8001C26.4002 15.4001 26.4002 14.8001 26.8002 14.4001C27.2002 14.0001 27.8001 14.0001 28.2001 14.4001L29.8002 16.0001V15.1001C29.8002 8.40014 24.3002 2.90015 17.6002 2.90015C13.4002 2.90015 9.60016 5.00014 7.30016 8.50014C7.00016 9.00014 6.40001 9.10014 5.90001 8.80014C5.40001 8.50014 5.30021 7.90015 5.60021 7.40015C8.20021 3.30015 12.7002 0.900146 17.6002 0.900146C25.4002 0.900146 31.7999 7.30014 31.7999 15.1001V16.0001L33.4 14.4001C33.8 14.0001 34.3999 14.0001 34.7999 14.4001C35.1999 14.7001 35.1999 15.4001 34.7999 15.8001Z" fill="white"/>
<path d="M29.5 22.8001C26.9 26.9001 22.4 29.3001 17.5 29.3001C13.7 29.3001 10.1 27.8001 7.49995 25.1001C4.79995 22.4001 3.3 18.8001 3.3 15.0001V14.1001L1.6999 15.7001C1.2999 16.1001 0.7 16.1001 0.3 15.7001C-0.1 15.3001 -0.1 14.7001 0.3 14.3001L3.6999 11.0001C3.8999 10.8001 4.09985 10.7001 4.39985 10.7001C4.69985 10.7001 4.90005 10.8001 5.10005 11.0001C5.10005 11.0001 5.0999 11.0001 5.1999 11.1001L8.49995 14.4001C8.89995 14.8001 8.89995 15.4001 8.49995 15.8001C8.29995 16.0001 8.1 16.1001 7.8 16.1001C7.5 16.1001 7.30005 16.0001 7.10005 15.8001L5.49995 14.2001V15.1001C5.49995 18.4001 6.80005 21.4001 9.10005 23.7001C11.4 26.0001 14.4999 27.3001 17.6999 27.3001C21.8999 27.3001 25.7 25.2001 28 21.7001C28.2999 21.2001 28.8999 21.1001 29.3999 21.4001C29.6999 21.7001 29.7999 22.3001 29.5 22.8001Z" fill="white"/>
</svg>
