<svg width="25" height="25" viewBox="0 0 25 25" fill="none" xmlns="http://www.w3.org/2000/svg">
<path d="M19.9508 10.5482C19.8714 12.3682 19.2367 14.1882 18.1258 15.6917C17.8877 15.8499 17.8877 16.2456 18.0464 16.483C18.1258 16.5621 18.1258 16.5621 18.2051 16.5621C20.2682 18.5403 22.2519 20.5186 24.2356 22.5759C24.3943 22.7342 24.553 22.8924 24.7117 23.0507C25.1084 23.5255 25.1084 24.2377 24.6323 24.6333C24.2356 25.1081 23.4421 25.1082 23.0454 24.7125C22.5693 24.3169 22.1725 23.842 21.6965 23.4464C19.9508 21.7055 18.2845 20.0438 16.6182 18.3029C16.3008 17.9073 16.0627 17.9073 15.666 18.2238C11.1431 21.389 4.87458 20.2021 1.77999 15.6126C-1.39395 11.023 -0.203731 4.85089 4.39848 1.76482C6.22349 0.498736 8.5246 -0.134362 10.7464 0.023898C15.904 0.340418 19.8714 4.69261 19.9508 10.5482ZM9.95287 17.5116C14.1583 17.5907 17.6497 14.3465 17.8084 10.1526C17.8877 5.95869 14.6344 2.47695 10.429 2.31869C10.2703 2.31869 10.1909 2.31869 10.0322 2.31869C5.82676 2.39782 2.49413 5.87958 2.57347 10.0735C2.57347 14.1882 5.82675 17.4325 9.95287 17.5116Z" fill="#BCBCBC"/>
</svg>
