<svg width="23" height="13" viewBox="0 0 23 13" fill="none" xmlns="http://www.w3.org/2000/svg">
<path d="M21.8999 2.60022H0.999756C0.599756 2.60022 0.299805 2.30027 0.299805 1.90027V0.900269C0.299805 0.500269 0.599756 0.200195 0.999756 0.200195H21.8999C22.2999 0.200195 22.5999 0.500269 22.5999 0.900269V1.90027C22.5999 2.30027 22.2999 2.60022 21.8999 2.60022Z" fill="#5F1762"/>
<path d="M16.2998 7.60022H1.09985C0.699854 7.60022 0.399902 7.30027 0.399902 6.90027V5.90027C0.399902 5.50027 0.699854 5.2002 1.09985 5.2002H16.2998C16.6998 5.2002 16.9998 5.50027 16.9998 5.90027V6.90027C16.9998 7.30027 16.6998 7.60022 16.2998 7.60022Z" fill="#5F1762"/>
<path d="M10.7 12.6002H0.999756C0.599756 12.6002 0.299805 12.3003 0.299805 11.9003V10.9003C0.299805 10.5003 0.599756 10.2002 0.999756 10.2002H10.7C11.1 10.2002 11.3999 10.5003 11.3999 10.9003V11.9003C11.4999 12.3003 11.1 12.6002 10.7 12.6002Z" fill="#5F1762"/>
</svg>
