<svg width="19" height="37" viewBox="0 0 22 39" fill="none" xmlns="http://www.w3.org/2000/svg">
<path d="M6.56909 20.4595V21.9888H0.797607C0.860107 21.4107 1.04761 20.8638 1.36011 20.3482C1.67261 19.8287 2.28979 19.1412 3.21167 18.2857C3.95386 17.5943 4.40894 17.1255 4.5769 16.8795C4.80347 16.5396 4.91675 16.2037 4.91675 15.8716C4.91675 15.5045 4.81714 15.2232 4.61792 15.0279C4.42261 14.8287 4.15112 14.7291 3.80347 14.7291C3.45972 14.7291 3.18628 14.8326 2.98315 15.0396C2.78003 15.2466 2.66284 15.5904 2.63159 16.0709L0.990967 15.9068C1.08862 15.0005 1.39526 14.3502 1.91089 13.9556C2.42651 13.5611 3.07104 13.3638 3.84448 13.3638C4.69214 13.3638 5.35815 13.5923 5.84253 14.0494C6.3269 14.5064 6.56909 15.0748 6.56909 15.7545C6.56909 16.1412 6.49878 16.5103 6.35815 16.8619C6.22144 17.2095 6.00269 17.5748 5.7019 17.9576C5.50269 18.2115 5.14331 18.5767 4.62378 19.0533C4.10425 19.5298 3.77417 19.8463 3.63354 20.0025C3.49683 20.1588 3.3855 20.3111 3.29956 20.4595H6.56909Z" fill="white"/>
<path d="M3.09998 0.716339C2.99998 0.716339 2.79997 0.716339 2.69997 0.716339C2.69997 1.91727 2.79997 3.11819 2.79997 4.41919C2.89997 4.41919 2.99998 4.41919 3.09998 4.41919C11.4 4.41919 18.1 11.1244 18.1 19.4308C18.1 27.7373 11.4 34.4425 3.09998 34.4425C2.99998 34.4425 2.79997 34.4425 2.69997 34.4425C2.69997 35.6434 2.69998 36.8444 2.59998 38.1454C2.79998 38.1454 2.89998 38.1454 3.09998 38.1454C13.4 38.1454 21.7 29.7389 21.7 19.5309C21.8 9.12285 13.4 0.716339 3.09998 0.716339Z" fill="#3D3D3D"/>
</svg>
