<svg width="40" height="40" viewBox="0 0 45 46" fill="none" xmlns="http://www.w3.org/2000/svg">
<path d="M22.4 45.0615C19.4 45.0615 16.6 44.461 13.9 43.3601C11.3 42.2593 8.90001 40.6581 6.90001 38.5564C2.80001 34.3532 0.5 28.7488 0.5 22.8442C0.5 21.9435 0.499997 21.0428 0.699997 20.2422C0.799997 19.5417 1.4 19.0413 2.2 19.1414C2.9 19.2414 3.4 19.8419 3.3 20.6425C3.2 21.4431 3.2 22.2438 3.2 22.9443C3.2 33.7527 11.9 42.5595 22.5 42.5595C33.1 42.5595 41.8 33.7527 41.8 22.9443C41.8 12.1359 33.1 3.32908 22.5 3.32908C21.8 3.32908 21.2 2.72862 21.2 2.02808C21.2 1.32754 21.8 0.727066 22.5 0.727066C25.5 0.727066 28.3 1.32753 31 2.42838C33.6 3.52924 36 5.13048 38 7.23211C42.1 11.4354 44.4 17.0397 44.4 22.9443C44.4 28.8489 42.1 34.4532 38 38.6565C36 40.6581 33.6 42.2593 31 43.4602C28.2 44.461 25.3 45.0615 22.4 45.0615Z" fill="#631363"/>
<path d="M22.8 38.9567C18.5 38.9567 14.4 37.2554 11.4 34.2531C8.30001 31.2508 6.7 27.1476 6.7 22.8442C6.7 21.9435 6.80001 21.0428 6.90001 20.2422C7.00001 19.5417 7.70001 19.0413 8.40001 19.1413C9.10001 19.2414 9.6 19.942 9.5 20.6425C9.4 21.3431 9.3 22.1437 9.3 22.8442C9.3 30.25 15.4 36.3547 22.8 36.3547C30.2 36.3547 36.3 30.25 36.3 22.8442C36.3 15.4385 30.2 9.33373 22.8 9.33373C22.1 9.33373 21.5 8.73328 21.5 8.03273C21.5 7.33219 22.1 6.73172 22.8 6.73172C27.1 6.73172 31.2 8.43304 34.2 11.4354C37.3 14.4377 38.9 18.5409 38.9 22.8442C38.9 27.1476 37.2 31.2508 34.2 34.2531C31.2 37.2554 27.1 38.9567 22.8 38.9567Z" fill="#40F440"/>
<path d="M17.9 21.0427V20.4422H20.9V20.8425C20.6 21.1428 20.3 21.5431 20 22.1435C19.7 22.6439 19.5 23.2444 19.3 23.7448C19.2 24.1451 19.1 24.5454 19.1 25.0458H18.5C18.5 24.6455 18.6 24.2452 18.7 23.7448C18.8 23.2444 19 22.744 19.3 22.2436C19.6 21.7432 19.8 21.3429 20.1 21.0427H17.9Z" fill="#6D6D6D"/>
<path d="M21.5 23.9449H22.1C22.1 24.2451 22.2 24.4452 22.4 24.6454C22.6 24.7455 22.8 24.8455 23 24.8455C23.3 24.8455 23.5 24.7455 23.7 24.5453C23.9 24.3452 24 24.0449 24 23.7447C24 23.4445 23.9 23.1442 23.7 22.9441C23.5 22.7439 23.3 22.6438 23 22.6438C22.8 22.6438 22.6 22.6438 22.5 22.7439C22.4 22.844 22.2 22.9441 22.1 23.0442L21.6 22.9441L22.1 20.5422H24.4V21.0426H22.5L22.2 22.3436C22.5 22.1435 22.8 22.0434 23.1 22.0434C23.5 22.0434 23.9 22.1435 24.1 22.4437C24.4 22.7439 24.5 23.0442 24.5 23.5446C24.5 23.9449 24.4 24.3452 24.1 24.6454C23.8 25.0457 23.4 25.2459 22.9 25.2459C22.5 25.2459 22.1 25.1458 21.9 24.8455C21.7 24.6454 21.5 24.3452 21.5 23.9449Z" fill="#6D6D6D"/>
<path d="M25.3 21.5432C25.3 21.243 25.4 20.9428 25.6 20.6425C25.8 20.4424 26 20.2422 26.3 20.2422C26.6 20.2422 26.8 20.3423 27 20.5425C27.2 20.7426 27.3 21.0428 27.3 21.4431C27.3 21.8435 27.2 22.1437 27 22.3438C26.8 22.544 26.6 22.6441 26.3 22.6441C26 22.6441 25.8 22.544 25.6 22.3438C25.3 22.3438 25.3 22.0436 25.3 21.5432ZM26.2 20.7426C26.1 20.7426 25.9 20.8427 25.8 20.9428C25.7 21.0428 25.7 21.3431 25.7 21.6433C25.7 21.9435 25.7 22.1437 25.8 22.2438C25.9 22.3438 26 22.4439 26.2 22.4439C26.3 22.4439 26.5 22.3438 26.6 22.2438C26.7 22.1437 26.7 21.8435 26.7 21.5432C26.7 21.243 26.7 21.0428 26.6 20.9428C26.5 20.8427 26.4 20.7426 26.2 20.7426ZM26.3 25.3462L28.9 20.4424H29.4L26.9 25.3462H26.3ZM28.3 24.0452C28.3 23.7449 28.4 23.4447 28.6 23.1445C28.8 22.9443 29 22.7442 29.3 22.7442C29.6 22.7442 29.8 22.8442 30 23.0444C30.2 23.2446 30.3 23.5448 30.3 23.9451C30.3 24.3454 30.2 24.6456 30 24.8458C29.8 25.0459 29.6 25.146 29.3 25.146C29 25.146 28.8 25.0459 28.6 24.8458C28.4 24.7457 28.3 24.4455 28.3 24.0452ZM29.3 23.2445C29.2 23.2445 29 23.3446 28.9 23.4447C28.8 23.5448 28.8 23.845 28.8 24.1452C28.8 24.4455 28.8 24.6456 28.9 24.7457C29 24.8458 29.1 24.9459 29.3 24.9459C29.4 24.9459 29.6 24.8458 29.7 24.7457C29.8 24.6456 29.8 24.3454 29.8 24.0452C29.8 23.7449 29.8 23.5448 29.7 23.4447C29.5 23.2445 29.4 23.2445 29.3 23.2445Z" fill="#6D6D6D"/>
</svg>
