<svg width="42" height="42" viewBox="0 0 42 42" fill="none" xmlns="http://www.w3.org/2000/svg">
<path d="M15.7351 22.5185L17.3757 22.3485C17.4226 22.7196 17.5613 23.0146 17.7917 23.2333C18.0222 23.4482 18.2878 23.5556 18.5886 23.5556C18.9324 23.5556 19.2234 23.4169 19.4617 23.1396C19.7 22.8583 19.8191 22.4364 19.8191 21.8739C19.8191 21.3466 19.7 20.9521 19.4617 20.6903C19.2273 20.4247 18.9207 20.2919 18.5417 20.2919C18.0691 20.2919 17.6453 20.5009 17.2703 20.9189L15.9343 20.7255L16.7781 16.2548H21.1316V17.7958H18.0261L17.7683 19.2548C18.1355 19.0712 18.5105 18.9794 18.8933 18.9794C19.6238 18.9794 20.2429 19.245 20.7507 19.7763C21.2585 20.3075 21.5125 20.997 21.5125 21.8446C21.5125 22.5517 21.3074 23.1825 20.8972 23.7372C20.3386 24.495 19.5632 24.8739 18.571 24.8739C17.7781 24.8739 17.1316 24.661 16.6316 24.2353C16.1316 23.8095 15.8328 23.2372 15.7351 22.5185ZM22.3914 17.7841V16.2548H28.0222V17.4501C27.5574 17.9071 27.0847 18.5634 26.6042 19.4189C26.1238 20.2743 25.7566 21.1845 25.5027 22.1493C25.2527 23.1103 25.1296 23.9696 25.1335 24.7274H23.5457C23.573 23.5399 23.8171 22.329 24.2781 21.0946C24.7429 19.8603 25.3621 18.7567 26.1355 17.7841H22.3914Z" fill="#27272D"/>
<path d="M32.5 7.11262C31.7 8.01332 31.8 9.41442 32.6 10.215C35.4 13.1173 37.1 17.0203 37.1 21.3237C37.1 27.9288 33 33.6332 27.3 36.0351C26.2 36.5355 25.6 37.6363 25.9 38.8372C26.3 40.1383 27.7 40.9389 29 40.3384C36.4 37.236 41.7 29.9303 41.7 21.3237C41.7 15.7193 39.5 10.7154 35.9 7.01256C35 6.01178 33.4 6.11185 32.5 7.11262Z" fill="#8C8C8C"/>
<path d="M21.1999 37.236C10.5999 37.236 2.49994 26.928 6.19994 15.8194C7.69994 11.416 11.1999 7.91325 15.5999 6.41208C19.8999 4.91092 24.0999 5.31122 27.5999 6.81239C28.4999 7.2127 29.6999 7.01255 30.2999 6.21193C31.2999 5.011 30.8999 3.20959 29.4999 2.60913C25.0999 0.607573 19.8999 0.20726 14.5999 1.8085C8.29994 3.70998 3.39994 8.71387 1.49994 15.0188C-2.70006 29.1297 7.69994 41.9397 21.0999 41.9397C21.1999 41.9397 21.2999 41.9397 21.3999 41.9397C22.8999 41.9397 23.9999 40.4385 23.5999 38.9373C23.2999 37.9366 22.3999 37.236 21.2999 37.236C21.3999 37.236 21.2999 37.236 21.1999 37.236Z" fill="#3D3D3D"/>
</svg>
