<svg width="39" height="40" viewBox="0 0 43 44" fill="none" xmlns="http://www.w3.org/2000/svg">
<path d="M16.7507 21.1669C16.325 20.9872 16.0144 20.7411 15.8191 20.4286C15.6277 20.1122 15.532 19.7665 15.532 19.3915C15.532 18.7509 15.7546 18.2216 16.2 17.8036C16.6492 17.3856 17.2859 17.1767 18.1101 17.1767C18.9265 17.1767 19.5593 17.3856 20.0085 17.8036C20.4617 18.2216 20.6882 18.7509 20.6882 19.3915C20.6882 19.7899 20.5847 20.1454 20.3777 20.4579C20.1707 20.7665 19.8796 21.0028 19.5046 21.1669C19.9812 21.3583 20.3425 21.6376 20.5886 22.0048C20.8386 22.372 20.9636 22.7958 20.9636 23.2763C20.9636 24.0692 20.7097 24.7138 20.2019 25.2099C19.698 25.7059 19.0261 25.954 18.1863 25.954C17.405 25.954 16.7546 25.7489 16.2351 25.3388C15.6218 24.8544 15.3152 24.1903 15.3152 23.3466C15.3152 22.8817 15.4304 22.4559 15.6609 22.0692C15.8914 21.6786 16.2546 21.3778 16.7507 21.1669ZM17.0906 19.5087C17.0906 19.8368 17.1824 20.0927 17.366 20.2763C17.5535 20.4599 17.8015 20.5517 18.1101 20.5517C18.4226 20.5517 18.6726 20.4599 18.8601 20.2763C19.0476 20.0888 19.1414 19.8309 19.1414 19.5028C19.1414 19.1942 19.0476 18.9481 18.8601 18.7645C18.6765 18.577 18.4324 18.4833 18.1277 18.4833C17.8113 18.4833 17.5593 18.577 17.3718 18.7645C17.1843 18.952 17.0906 19.2001 17.0906 19.5087ZM16.9382 23.1884C16.9382 23.6415 17.0535 23.995 17.2839 24.2489C17.5183 24.5028 17.8093 24.6298 18.157 24.6298C18.4968 24.6298 18.7781 24.5087 19.0007 24.2665C19.2234 24.0204 19.3347 23.6669 19.3347 23.2059C19.3347 22.8036 19.2214 22.4813 18.9949 22.2392C18.7683 21.9931 18.4812 21.87 18.1335 21.87C17.7312 21.87 17.4304 22.0087 17.2312 22.286C17.0359 22.5634 16.9382 22.8642 16.9382 23.1884ZM22.0535 23.8153L23.6472 23.6395C23.6863 23.9638 23.7878 24.204 23.9519 24.3602C24.116 24.5165 24.3328 24.5946 24.6023 24.5946C24.9421 24.5946 25.2312 24.4384 25.4695 24.1259C25.7078 23.8134 25.8601 23.1649 25.9265 22.1806C25.5125 22.661 24.9949 22.9013 24.3738 22.9013C23.698 22.9013 23.114 22.6415 22.6218 22.122C22.1335 21.5985 21.8894 20.9188 21.8894 20.0829C21.8894 19.2118 22.1472 18.5106 22.6628 17.9794C23.1824 17.4442 23.8425 17.1767 24.6433 17.1767C25.5144 17.1767 26.2292 17.5145 26.7878 18.1903C27.3464 18.8622 27.6257 19.9696 27.6257 21.5126C27.6257 23.0829 27.3347 24.2157 26.7527 24.911C26.1707 25.6063 25.4128 25.954 24.4792 25.954C23.8074 25.954 23.2644 25.7763 22.8503 25.4208C22.4363 25.0614 22.1707 24.5263 22.0535 23.8153ZM25.78 20.2177C25.78 19.6864 25.657 19.2743 25.4109 18.9813C25.1687 18.6884 24.8875 18.5419 24.5671 18.5419C24.2625 18.5419 24.0085 18.663 23.8054 18.9052C23.6062 19.1434 23.5066 19.536 23.5066 20.0829C23.5066 20.6376 23.616 21.0458 23.8347 21.3075C24.0535 21.5653 24.3269 21.6942 24.655 21.6942C24.9714 21.6942 25.2371 21.5692 25.4519 21.3192C25.6707 21.0692 25.78 20.702 25.78 20.2177Z" fill="#27272D"/>
<path d="M20.8 7.31433V1.81006C20.8 1.30967 20.3 0.909363 19.8 0.909363C18.6 1.00944 17.4 1.2096 16.3 1.50984C15.7 1.60991 15.4 2.21037 15.6 2.81083C16.2 4.51215 16.7 6.21348 17.2 7.9148C17.3 8.31511 17.8 8.61535 18.2 8.51527C18.8 8.31512 19.4001 8.21504 20.0001 8.21504C20.4001 8.11496 20.8 7.71464 20.8 7.31433Z" fill="white"/>
<path d="M35.8 22.2259C35.8 25.6286 34.6 28.831 32.4 31.4331C32.1 31.8334 32.1 32.3338 32.4 32.634L36.1 36.6371C36.5 37.0374 37.1 37.0374 37.4 36.6371C41 32.7341 43 27.6301 43 22.2259C43 18.7232 42.2 15.3206 40.5 12.2181C38.9 9.31589 36.7 6.71387 34 4.71232C30.9 2.51061 27.3 1.20959 23.5 0.80928C23 0.80928 22.5 1.2096 22.5 1.70999V7.21426C22.5 7.71465 22.8 8.01488 23.3 8.11495C25.6 8.41519 27.9 9.21581 29.8 10.6169C33.5 13.319 35.8 17.6223 35.8 22.2259Z" fill="#27272D"/>
<path d="M7.49991 27.0296C7.89991 26.8295 8.19991 26.4292 7.99991 25.9288C7.69991 24.7279 7.49991 23.4268 7.49991 22.2259C7.49991 18.6231 8.8999 15.2205 11.2999 12.6185C11.5999 12.3182 11.5999 11.7178 11.2999 11.4175L7.7999 7.21427C7.4999 6.81395 6.79991 6.81395 6.49991 7.21427C2.59991 11.2174 0.399902 16.6216 0.399902 22.2259C0.399902 24.4276 0.699896 26.5293 1.2999 28.5308C1.4999 29.0312 1.99991 29.3314 2.49991 29.1313L7.49991 27.0296Z" fill="#40F440"/>
<path d="M21.6 36.3368C16.4 36.3368 11.7 33.5347 9.19996 29.0312C8.99996 28.6309 8.49996 28.4307 8.09996 28.6309L2.99998 30.7325C2.49998 30.9327 2.29998 31.5331 2.49998 31.9334C6.09998 39.0389 13.5 43.6425 21.5 43.6425C26.2 43.6425 30.8 42.0413 34.6 39.139C35 38.8388 35.1 38.2383 34.7 37.838L31 33.8349C30.7 33.5347 30.2 33.4346 29.8 33.7348C27.5 35.4361 24.6 36.3368 21.6 36.3368Z" fill="#3D3D3D"/>
<path d="M15.5 9.41598C14.8 9.71621 14.1999 10.1165 13.5999 10.5168C13.2999 10.6169 12.8999 10.5168 12.5999 10.2166L9.19994 6.2135C9.09994 6.11342 8.99996 5.91325 8.89996 5.81318C8.89996 5.81318 8.89996 5.81319 8.89996 5.71311C8.69996 5.41287 8.79994 4.91249 9.09994 4.71233C10.2999 3.81163 11.5999 3.11109 13.0999 2.51062H13.1999C13.5999 2.31047 13.9999 2.51061 14.0999 2.81085C14.0999 2.91092 14.1999 2.91094 14.1999 3.01101V3.11108L15.9 8.21505C16.1 8.81552 15.9 9.21582 15.5 9.41598Z" fill="#631363"/>
</svg>
