<svg width="37" height="37" viewBox="0 0 39 39" fill="none" xmlns="http://www.w3.org/2000/svg">
<path d="M19.9539 22.9888V21.2603H16.4382V19.8189L20.1648 14.3638H21.5476V19.813H22.614V21.2603H21.5476V22.9888H19.9539ZM19.9539 19.813V16.8775L17.9792 19.813H19.9539Z" fill="white"/>
<path d="M20.4 0.815613C20.4 2.01654 20.4 3.21749 20.3 4.5185C28.2 4.91881 34.6 11.4239 34.6 19.5302C34.6 27.8366 27.9 34.5418 19.6 34.5418C11.5 34.5418 4.80002 28.0367 4.60002 19.9305C3.40002 19.9305 2.20002 19.9305 0.900024 19.9305C1.10002 30.0383 9.40001 38.2447 19.5 38.2447C29.8 38.2447 38.1 29.8382 38.1 19.6302C38.2 9.42231 30.3 1.21592 20.4 0.815613Z" fill="#3D3D3D"/>
</svg>
