<svg width="24" height="27" viewBox="0 0 24 27" fill="none" xmlns="http://www.w3.org/2000/svg">
<path d="M11.8976 0C5.33346 0 0 5.12406 0 11.4306C0 16.8503 3.89735 21.3832 9.12814 22.5657L12 27L14.8719 22.5657C20.1026 21.3832 24 16.8503 24 11.4306C23.7949 5.12406 18.4617 0 11.8976 0ZM12.9232 20.2992V19.5109C14.4617 19.5109 15.7948 18.6241 16.3077 17.2445C17.0256 15.3722 15.795 13.4014 13.9489 12.9087L10.4615 11.9233C10.0513 11.8248 9.74363 11.4307 9.74363 11.0365C9.74363 10.5438 10.1538 10.1496 10.6666 10.1496H12.8206C13.2308 10.1496 13.6412 10.2481 13.9489 10.4452C14.154 10.5438 14.359 10.5438 14.5641 10.3467L15.6924 9.26279C15.8976 9.06571 15.8975 8.6715 15.5898 8.47442C14.7692 7.88318 13.8462 7.5876 12.8206 7.5876V6.1095C12.8206 5.81388 12.6154 5.6168 12.3077 5.6168H11.2821C10.9744 5.6168 10.7693 5.81388 10.7693 6.1095V7.5876H10.6666C8.61532 7.5876 6.97439 9.26279 7.17952 11.2336C7.28208 12.6132 8.41039 13.7956 9.84629 14.1898L13.1283 15.0766C13.5386 15.1752 13.8462 15.5693 13.8462 15.9635C13.8462 16.4562 13.4361 16.8503 12.9232 16.8503H10.7693C10.359 16.8503 9.94866 16.7518 9.64097 16.5547C9.43584 16.4562 9.23086 16.4562 9.02573 16.6533L7.89742 17.7372C7.69229 17.9343 7.69239 18.3284 8.00008 18.5255C8.8206 19.1168 9.74363 19.4124 10.7693 19.4124V20.2007C6.15387 19.708 2.66678 15.9635 2.66678 11.4306C2.66678 6.89778 6.15377 3.25183 10.6666 2.66059C11.0769 2.66059 11.4872 2.56202 11.7949 2.56202C12.2052 2.56202 12.6155 2.56205 12.9232 2.66059C17.4361 3.25183 20.9231 6.89778 20.9231 11.4306C21.0256 16.062 17.4361 19.8065 12.9232 20.2992Z" fill="#5F1762"/>
</svg>
