<svg width="27" height="18" viewBox="0 0 27 18" fill="none" xmlns="http://www.w3.org/2000/svg">
<path d="M26.7168 14.9462C26.7951 14.9883 26.8343 15.0306 26.8734 15.0306V3.01654L18.8419 8.83379L26.7168 14.9462Z" fill="#631363"/>
<path d="M13.6717 10.4352L26.7963 1.45627C26.6396 0.739644 25.9344 0.191635 25.0725 0.191635H1.76159C0.938855 0.191635 0.233632 0.697551 0.0769196 1.41418L13.6717 10.4352Z" fill="#631363"/>
<path d="M26.679 16.8009L17.5897 9.71896L13.6719 12.4168L9.20564 9.3817L0.116364 16.4637C0.155542 17.3068 0.939063 17.9391 1.84016 17.9391H25.1511C25.8955 17.9391 26.5615 17.5175 26.7965 16.8852C26.7574 16.8852 26.7182 16.8852 26.679 16.8009Z" fill="#631363"/>
<path d="M7.95197 8.53817L0.116364 3.31105V14.6085L7.95197 8.53817Z" fill="#631363"/>
</svg>
