<svg width="25" height="18" viewBox="0 0 25 18" fill="none" xmlns="http://www.w3.org/2000/svg">
<path d="M16.4774 9.07782C15.4782 9.07782 14.4789 8.5776 13.6796 7.77733C12.9801 6.97706 12.4805 5.87668 12.3806 4.77631C12.2806 3.5759 12.6803 2.47558 13.3798 1.57527C14.1791 0.774999 15.1783 0.27478 16.3774 0.27478C17.5764 0.27478 18.5756 0.674965 19.375 1.57527C20.1743 2.37554 20.4742 3.47587 20.4742 4.77631C20.3743 5.87668 19.9745 6.97706 19.1752 7.77733C18.4757 8.5776 17.4766 9.07782 16.4774 9.07782Z" fill="#5F1762"/>
<path d="M22.972 17.7806H9.88233C9.48265 17.7806 9.08287 17.5805 8.78311 17.2804C8.48335 16.8803 8.38363 16.4801 8.48355 15.9799C8.88323 14.2794 9.88243 12.8789 11.4811 11.9786C12.88 11.1783 14.5786 10.6782 16.3771 10.6782C18.1757 10.6782 19.8742 11.0783 21.2731 11.9786C22.7719 12.8789 23.871 14.2794 24.2707 15.9799C24.3706 16.3801 24.2709 16.8803 23.9712 17.2804C23.8712 17.5805 23.4716 17.7806 22.972 17.7806Z" fill="#5F1762"/>
<path d="M7.0845 9.2779C5.38586 9.2779 3.78724 7.67739 3.68732 5.67671C3.5874 4.67637 3.88706 3.67595 4.5865 2.97572C5.18602 2.27548 6.0853 1.87537 7.0845 1.87537C8.08371 1.87537 8.98299 2.27548 9.58251 2.97572C10.182 3.67595 10.5819 4.57636 10.4819 5.5767C10.382 7.57738 8.88307 9.2779 7.0845 9.2779Z" fill="#5F1762"/>
<path d="M10.382 10.7783C9.48268 10.3781 8.38351 10.1781 7.08455 10.1781C5.58575 10.1781 4.18687 10.5782 3.08775 11.2784C1.78879 12.0787 0.989425 13.1791 0.589745 14.5796C0.489825 14.9798 0.589696 15.3798 0.789536 15.78C0.989377 16.0801 1.38906 16.2801 1.78874 16.2801H7.28434C7.48418 16.2801 7.68417 16.1801 7.68417 15.98V15.88C8.08385 14.1794 9.08295 12.779 10.5818 11.7786C10.7816 11.6786 10.7817 11.3785 10.6818 11.1784L10.5818 11.0784C10.5818 10.8784 10.4819 10.8783 10.382 10.7783Z" fill="#5F1762"/>
</svg>
