<svg width="18" height="18" viewBox="0 0 18 18" fill="none" xmlns="http://www.w3.org/2000/svg">
<path d="M11.6001 4.00026L14.1001 6.50026C14.4001 6.80026 14.4001 7.20029 14.1001 7.40029L4.2002 17.3002C4.1002 17.4002 3.9002 17.5003 3.7002 17.5003H1.2002C0.800195 17.5003 0.5 17.2002 0.5 16.8002V14.3002C0.5 14.1002 0.600195 14.0002 0.700195 13.8002L10.6001 3.90029C11.0001 3.80029 11.4001 3.80026 11.6001 4.00026Z" fill="#631363"/>
<path d="M12.8998 1.90029L13.8998 0.900293C14.1998 0.600293 14.5997 0.600293 14.7997 0.900293L17.2997 3.40029C17.5997 3.70029 17.5997 4.1002 17.2997 4.3002L16.2997 5.3002C15.9997 5.6002 15.5998 5.6002 15.3998 5.3002L12.8998 2.8002C12.5998 2.6002 12.5998 2.10029 12.8998 1.90029Z" fill="#631363"/>
</svg>
