<svg width="10" height="9" viewBox="0 0 10 9" fill="none" xmlns="http://www.w3.org/2000/svg">
<path d="M6.32595 1.81109L7.72573 3.06144C7.8257 3.15075 7.8257 3.41868 7.72573 3.50799L2.12712 8.5093C2.02715 8.59861 1.92713 8.59859 1.82716 8.59859H0.427628C0.227681 8.59859 0.027832 8.41995 0.027832 8.24133V6.99097C0.027832 6.90166 0.0276856 6.81242 0.127659 6.72311L5.72626 1.7218C5.92621 1.7218 6.22598 1.72178 6.32595 1.81109Z" fill="#F4F4F4"/>
<path d="M7.02594 0.739414L7.62563 0.203579C7.7256 0.114269 8.02552 0.114269 8.1255 0.203579L9.52527 1.45393C9.62524 1.54324 9.62524 1.81117 9.52527 1.90048L8.92533 2.43632C8.82536 2.52563 8.52544 2.52563 8.42547 2.43632L7.02594 1.18596C6.82599 1.09665 6.82599 0.828723 7.02594 0.739414Z" fill="#F4F4F4"/>
</svg>
