<svg width="23" height="18" viewBox="0 0 23 18" fill="none" xmlns="http://www.w3.org/2000/svg">
<path d="M19.028 0.111969H3.66254C1.60787 0.111969 0 1.72006 0 3.77472V13.4225C0 14.2265 0.268044 15.0307 0.71471 15.5667C0.804044 15.7453 0.89329 15.8346 1.07196 15.9239L1.25058 16.1025C1.33991 16.1919 1.42929 16.2813 1.51862 16.3706C2.14396 16.8173 2.85854 17.0853 3.66254 17.0853H18.9386C20.9933 17.0853 22.6014 15.4772 22.6014 13.4225V3.77472C22.6907 1.72006 20.9934 0.111969 19.028 0.111969ZM3.66254 1.27335H18.9386C19.4746 1.27335 20.0107 1.45201 20.368 1.72001L12.2386 9.93864C12.06 10.1173 11.7026 10.2959 11.3453 10.2959C10.988 10.2959 10.6306 10.2066 10.452 9.93864L2.32254 1.63059C2.67987 1.36259 3.21587 1.27335 3.66254 1.27335ZM1.16138 13.4225V3.77472C1.16138 3.23872 1.33996 2.79206 1.51862 2.43472L7.59333 8.59864L1.51862 14.7625C1.25062 14.4052 1.16138 13.9585 1.16138 13.4225ZM19.028 16.0133H3.66254C3.12654 16.0133 2.67987 15.8347 2.32254 15.5667L8.39725 9.40255L9.73725 10.7425C10.1839 11.1892 10.8094 11.4573 11.4347 11.4573C12.06 11.4573 12.6853 11.1892 13.132 10.7425L14.3825 9.49197L20.368 15.6559C20.0107 15.8345 19.4747 16.0133 19.028 16.0133ZM21.5292 13.4225C21.5292 13.9585 21.3506 14.4052 21.172 14.7625L15.1867 8.59864L21.2614 2.52393C21.44 2.88126 21.6186 3.32806 21.6186 3.77472V13.4225H21.5292Z" fill="#631363"/>
<path d="M20.0721 16.0134L19.7148 15.6559C19.8042 15.7452 19.8934 15.8347 20.0721 16.0134Z" fill="#631363"/>
<path d="M20.5188 16.3706L20.2507 16.1026C20.3401 16.1919 20.4294 16.2813 20.5188 16.3706Z" fill="#631363"/>
</svg>
