<svg width="13" height="10" viewBox="0 0 13 10" fill="none" xmlns="http://www.w3.org/2000/svg">
<path d="M8.33639 4.81881L7.03738 6.11823V0.820568C7.03738 0.520699 6.83769 0.220825 6.43801 0.220825C6.13825 0.220825 5.83839 0.420743 5.83839 0.820568V6.11823L4.53938 4.81881C4.33954 4.6189 3.94005 4.6189 3.74021 4.81881C3.54037 5.01872 3.54037 5.41853 3.74021 5.61845L5.93841 7.81749C6.03833 7.91745 6.03828 7.91745 6.1382 7.91745C6.23812 8.01741 6.43786 8.01741 6.53778 7.91745C6.6377 7.91745 6.6379 7.81749 6.73782 7.81749L8.93601 5.61845C9.13585 5.41853 9.13585 5.01872 8.93601 4.81881C8.83609 4.6189 8.53623 4.6189 8.33639 4.81881Z" fill="#F4F4F4"/>
<path d="M0.942383 6.01829V8.21734C0.942383 9.11694 1.64177 9.9166 2.64098 9.9166H10.3348C11.2341 9.9166 12.0334 9.2169 12.0334 8.21734V6.01829C12.0334 5.71842 11.8337 5.41858 11.434 5.41858C11.0343 5.41858 10.8344 5.61847 10.8344 6.01829V8.21734C10.8344 8.5172 10.6347 8.81708 10.235 8.81708H2.54096C2.2412 8.81708 1.94158 8.61716 1.94158 8.21734V6.01829C1.94158 5.71842 1.74165 5.41858 1.34197 5.41858C0.942285 5.41858 0.942383 5.71842 0.942383 6.01829Z" fill="#F4F4F4"/>
</svg>
