<svg width="25" height="19" viewBox="0 0 25 19" fill="none" xmlns="http://www.w3.org/2000/svg">
<path d="M1.57919 4.22018H8.27379C8.57355 5.51961 9.7725 6.51916 11.1714 6.51916C12.5703 6.51916 13.7694 5.51961 14.0692 4.22018H24.0612C24.4609 4.22018 24.8606 3.92032 24.8606 3.42054C24.8606 2.92076 24.5608 2.62088 24.0612 2.62088H14.0692C13.7694 1.32145 12.5703 0.321899 11.1714 0.321899C9.7725 0.321899 8.57355 1.32145 8.27379 2.62088H1.57919C1.17951 2.62088 0.779785 2.92076 0.779785 3.42054C0.779785 3.92032 1.17951 4.22018 1.57919 4.22018ZM11.1714 2.02113C11.9707 2.02113 12.6702 2.72083 12.6702 3.52047C12.6702 4.32012 11.9707 5.01982 11.1714 5.01982C10.372 5.01982 9.67258 4.32012 9.67258 3.52047C9.67258 2.72083 10.372 2.02113 11.1714 2.02113Z" fill="#6D6D6D"/>
<path d="M24.0612 8.71817H22.4624C22.1626 7.41874 20.9637 6.41919 19.5648 6.41919C18.1659 6.41919 16.9667 7.41874 16.667 8.71817H1.57919C1.17951 8.71817 0.779785 9.01802 0.779785 9.5178C0.779785 10.0176 1.07959 10.3175 1.57919 10.3175H16.667C16.9667 11.6169 18.1659 12.6164 19.5648 12.6164C20.9637 12.6164 22.1626 11.6169 22.4624 10.3175H24.0612C24.4609 10.3175 24.8606 10.0176 24.8606 9.5178C24.8606 9.01802 24.5608 8.71817 24.0612 8.71817ZM19.5648 11.0171C18.7655 11.0171 18.066 10.3175 18.066 9.5178C18.066 8.71815 18.7655 8.01846 19.5648 8.01846C20.3642 8.01846 21.0636 8.71815 21.0636 9.5178C21.0636 10.3175 20.4641 11.0171 19.5648 11.0171Z" fill="#6D6D6D"/>
<path d="M24.0612 14.7156H9.5728C9.27304 13.4162 8.07386 12.4166 6.67497 12.4166C5.27609 12.4166 4.07715 13.4162 3.77739 14.7156H1.57919C1.17951 14.7156 0.779785 15.0155 0.779785 15.5152C0.779785 16.015 1.07959 16.3149 1.57919 16.3149H3.77739C4.07715 17.6143 5.27609 18.6139 6.67497 18.6139C8.07386 18.6139 9.27304 17.6143 9.5728 16.3149H24.0612C24.4609 16.3149 24.8606 16.015 24.8606 15.5152C24.8606 15.0155 24.5608 14.7156 24.0612 14.7156ZM6.67497 17.0146C5.87561 17.0146 5.17617 16.3149 5.17617 15.5152C5.17617 14.7156 5.87561 14.0159 6.67497 14.0159C7.47434 14.0159 8.17378 14.7156 8.17378 15.5152C8.17378 16.3149 7.47434 17.0146 6.67497 17.0146Z" fill="#6D6D6D"/>
</svg>
