<svg width="20" height="16" viewBox="0 0 20 16" fill="none" xmlns="http://www.w3.org/2000/svg">
<path d="M19.2773 0.722098C19.2773 0.681631 19.2382 0.681641 19.2382 0.681641C19.2382 0.681641 19.2382 0.681641 19.1991 0.681641L0.630545 1.97658C0.474178 1.97658 0.31785 2.09796 0.278758 2.25983C0.239667 2.4217 0.239743 2.58361 0.357018 2.70501L5.47806 8.04669L6.37709 15.5332C6.41618 15.695 6.49444 15.8164 6.65081 15.8974C6.76808 15.9378 6.84619 15.9379 6.96346 15.8569C7.00255 15.8165 7.04157 15.8164 7.08066 15.776L19.5119 1.45048C19.5119 1.45048 19.5119 1.45049 19.5119 1.41002C19.3165 0.803013 19.3164 0.803033 19.2773 0.722098ZM16.8927 1.45048L5.71245 7.11592L1.33431 2.54313L16.8927 1.45048ZM6.768 14.2787L5.98617 7.88481L17.1664 2.21937L6.768 14.2787Z" fill="#631363"/>
</svg>
