<svg width="31" height="25" viewBox="0 0 31 25" fill="none" xmlns="http://www.w3.org/2000/svg">
<path d="M4.89252 3.3305C7.79676 1.71331 11.6037 0.818724 15.6853 0.818724C19.7669 0.818724 23.6131 1.71331 26.4781 3.3305C27.3023 3.7778 28.0087 4.29394 28.5974 4.81006V3.12405C28.5974 1.47246 27.0668 0.0961609 25.1437 0.0961609H6.2269C4.34307 0.0961609 2.77321 1.43805 2.77321 3.12405V4.81006C3.36191 4.25953 4.06834 3.7778 4.89252 3.3305Z" fill="#40F440"/>
<path d="M20.2379 18.6764C18.7858 18.9172 17.2552 19.0549 15.6853 19.0549C11.6037 19.0549 7.75751 18.1602 4.89252 16.543C4.06834 16.0957 3.36191 15.5796 2.77321 15.0635V16.956C2.77321 18.6076 4.30382 19.7774 6.2269 19.7774H7.09032L4.93176 24.4913L11.4074 19.7774H21.7685C21.0228 19.0893 20.4734 18.6764 20.2379 18.6764Z" fill="#40F440"/>
<path d="M24.7139 17.4032C24.7139 17.7129 24.9494 18.6075 25.3026 19.7774C27.1472 19.7086 28.5993 18.5731 28.5993 16.956V15.0635C27.5789 15.9581 26.2838 16.7495 24.7139 17.4032Z" fill="#40F440"/>
<path d="M30.7567 9.93688C30.7567 5.25737 24.0063 1.43803 15.686 1.43803C7.36578 1.43803 0.615387 5.25737 0.615387 9.93688C0.615387 14.6164 7.36578 18.4357 15.686 18.4357C17.2559 18.4357 18.7473 18.2981 20.1601 18.0572C21.259 17.8507 26.4003 24.0442 26.5573 24.2507C26.4788 24.0442 24.124 16.9905 24.4772 16.8529C28.2842 15.2701 30.7567 12.7583 30.7567 9.93688ZM24.8697 20.7066C24.9874 21.1195 25.1444 21.5324 25.2622 21.9109C24.9482 21.5668 24.6342 21.1883 24.281 20.8443C21.6123 17.954 20.7488 17.5755 20.2386 17.5755C20.1994 17.5755 20.1209 17.5755 20.0816 17.5755C18.6688 17.8163 17.2166 17.954 15.7253 17.954C7.719 17.954 1.20408 14.3411 1.20408 9.93688C1.20408 5.53263 7.719 1.91976 15.7253 1.91976C23.7316 1.91976 30.2465 5.53263 30.2465 9.93688C30.2465 12.4831 28.0094 14.8916 24.281 16.4056C23.8101 16.5776 23.6138 16.6464 24.8697 20.7066Z" fill="#631363"/>
<path d="M30.7567 9.93688C30.7567 5.25737 24.0063 1.43803 15.686 1.43803C7.36578 1.43803 0.615387 5.25737 0.615387 9.93688C0.615387 14.6164 7.36578 18.4357 15.686 18.4357C17.2559 18.4357 18.7473 18.2981 20.1601 18.0572C21.259 17.8507 26.4003 24.0442 26.5573 24.2507C26.4788 24.0442 24.124 16.9905 24.4772 16.8529C28.2842 15.2701 30.7567 12.7583 30.7567 9.93688ZM20.0031 10.8315V9.31751C20.0031 8.69817 20.5918 8.18207 21.2983 8.18207H23.0251C23.7316 8.18207 24.3203 8.69817 24.3203 9.31751V10.8315C24.3203 11.4508 23.7316 11.967 23.0251 11.967H21.2983C20.5526 11.967 20.0031 11.4508 20.0031 10.8315ZM7.09106 9.31751C7.09106 8.69817 7.67975 8.18207 8.38619 8.18207H10.113C10.8195 8.18207 11.4082 8.69817 11.4082 9.31751V10.8315C11.4082 11.4508 10.8195 11.967 10.113 11.967H8.38619C7.67975 11.967 7.09106 11.4508 7.09106 10.8315V9.31751ZM13.5275 10.8315V9.31751C13.5275 8.69817 14.1162 8.18207 14.8226 8.18207H16.5495C17.2559 8.18207 17.8446 8.69817 17.8446 9.31751V10.8315C17.8446 11.4508 17.2559 11.967 16.5495 11.967H14.8226C14.1162 11.967 13.5275 11.4508 13.5275 10.8315Z" fill="#631363"/>
</svg>
