<svg xmlns="http://www.w3.org/2000/svg" width="21" height="15" viewBox="0 0 21 15" fill="none">
  <path d="M10.7888 0.125244C5.18117 0.125244 0.59314 2.90999 0.59314 6.31358C0.59314 9.71716 5.18117 12.5019 10.7888 12.5019C11.8475 12.5019 12.9063 12.3859 13.8867 12.1925H13.9259C14.0043 12.1925 14.0435 12.1925 14.0827 12.1925C14.6317 12.1925 15.2984 12.5793 16.8669 14.4744C16.2003 11.9217 16.2395 11.5737 16.8669 11.2643C18.161 10.6841 19.1805 9.91054 19.8864 9.05964C20.5922 8.20875 20.9844 7.2805 20.9844 6.31358C20.9844 2.90999 16.3964 0.125244 10.7888 0.125244ZM8.04379 7.04845C8.04379 7.78332 7.45557 8.36348 6.7105 8.36348H5.45568C4.71061 8.36348 4.12239 7.78332 4.12239 7.04845V5.8108C4.12239 5.07594 4.71061 4.49577 5.45568 4.49577H6.7105C7.45557 4.49577 8.04379 5.07594 8.04379 5.8108V7.04845ZM12.7495 7.04845C12.7495 7.78332 12.1612 8.36348 11.4162 8.36348H10.1613C9.41628 8.36348 8.82806 7.78332 8.82806 7.04845V5.8108C8.82806 5.07594 9.41628 4.49577 10.1613 4.49577H11.4162C12.1612 4.49577 12.7495 5.07594 12.7495 5.8108V7.04845ZM17.4551 7.04845C17.4551 7.78332 16.8669 8.36348 16.1218 8.36348H14.867C14.122 8.36348 13.5337 7.78332 13.5337 7.04845V5.8108C13.5337 5.07594 14.122 4.49577 14.867 4.49577H16.1218C16.8669 4.49577 17.4551 5.07594 17.4551 5.8108V7.04845Z" fill="#6D6D6D"/>
</svg>