<svg width="22" height="21" viewBox="0 0 22 21" fill="none" xmlns="http://www.w3.org/2000/svg">
<path d="M20.4399 2.96563V4.3592C20.0082 3.9334 19.4979 3.50756 18.9092 3.15918C16.7899 1.84307 14.0034 1.10762 11.0207 1.10762C8.03798 1.10762 5.25149 1.84307 3.13218 3.15918C2.54349 3.54627 2.03327 3.9334 1.60156 4.3592V2.96563C1.60156 1.61081 2.73972 0.488281 4.11335 0.488281H17.9281C19.3017 0.488281 20.4399 1.61081 20.4399 2.96563Z" fill="#F4F4F4"/>
<path d="M15.4556 16.6686H7.881L3.17142 20.5395L4.74128 16.6686H4.11335C2.73972 16.6686 1.60156 15.7009 1.60156 14.3461V12.7977C2.03327 13.2235 2.54349 13.6493 3.13218 13.9977C5.25149 15.3525 8.03798 16.0493 11.0207 16.0493C12.1589 16.0493 13.2578 15.9331 14.3174 15.7396C14.5137 15.7396 14.9061 16.088 15.4556 16.6686Z" fill="#F4F4F4"/>
<path d="M20.4412 12.7593V14.3076C20.4412 15.6238 19.3816 16.5915 18.0472 16.6302C17.8117 15.6625 17.6155 14.927 17.6155 14.6947C18.7536 14.1915 19.6955 13.5335 20.4412 12.7593Z" fill="#F4F4F4"/>
<path d="M11.021 2.38507C5.40873 2.38507 0.816895 5.17213 0.816895 8.57854C0.816895 11.985 5.40873 14.772 11.021 14.772C12.0806 14.772 13.1403 14.6559 14.1215 14.4624H14.1607C14.2392 14.4624 14.2784 14.4624 14.3177 14.4624C14.8671 14.4624 15.4951 14.8495 17.1042 16.7462C16.437 14.1914 16.4762 13.843 17.1042 13.5333C18.3993 12.9527 19.4197 12.1785 20.1262 11.3269C20.8326 10.4753 21.2251 9.54627 21.2251 8.57854C21.2251 5.17213 16.6332 2.38507 11.021 2.38507ZM8.27373 9.31403C8.27373 10.0495 7.68502 10.6301 6.93934 10.6301H5.68347C4.93778 10.6301 4.34908 10.0495 4.34908 9.31403V8.07535C4.34908 7.33988 4.93778 6.75923 5.68347 6.75923H6.93934C7.68502 6.75923 8.27373 7.33988 8.27373 8.07535V9.31403ZM12.9833 9.31403C12.9833 10.0495 12.3946 10.6301 11.6489 10.6301H10.393C9.64736 10.6301 9.05865 10.0495 9.05865 9.31403V8.07535C9.05865 7.33988 9.64736 6.75923 10.393 6.75923H11.6489C12.3946 6.75923 12.9833 7.33988 12.9833 8.07535V9.31403ZM17.6929 9.31403C17.6929 10.0495 17.1042 10.6301 16.3585 10.6301H15.1026C14.3569 10.6301 13.7682 10.0495 13.7682 9.31403V8.07535C13.7682 7.33988 14.3569 6.75923 15.1026 6.75923H16.3585C17.1042 6.75923 17.6929 7.33988 17.6929 8.07535V9.31403Z" fill="#F4F4F4"/>
</svg>
