<svg width="21" height="21" viewBox="0 0 21 21" fill="none" xmlns="http://www.w3.org/2000/svg">
<path d="M20.2006 2.7052V4.09757C19.7693 3.67212 19.2595 3.24668 18.6713 2.89859C16.5537 1.58357 13.7695 0.848729 10.7893 0.848729C7.80901 0.848729 5.02483 1.58357 2.90728 2.89859C2.31907 3.28536 1.80928 3.67212 1.37793 4.09757V2.7052C1.37793 1.3515 2.51514 0.229858 3.88763 0.229858H17.6909C19.0634 0.229858 20.2006 1.3515 20.2006 2.7052Z" fill="#6D6D6D"/>
<path d="M15.2205 16.3583H7.65216L2.94649 20.226L4.51504 16.3583H3.88763C2.51514 16.3583 1.37793 15.3914 1.37793 14.0377V12.4906C1.80928 12.916 2.31907 13.3415 2.90728 13.6896C5.02483 15.0432 7.80901 15.7395 10.7893 15.7395C11.9265 15.7395 13.0245 15.6234 14.0832 15.43C14.2793 15.4687 14.6715 15.8168 15.2205 16.3583Z" fill="#6D6D6D"/>
<path d="M20.2002 12.4907V14.0378C20.2002 15.3528 19.1414 16.3197 17.8082 16.3584C17.5729 15.3915 17.3768 14.6566 17.3768 14.4245C18.514 13.8831 19.4551 13.2256 20.2002 12.4907Z" fill="#6D6D6D"/>
<path d="M10.7888 2.12524C5.18117 2.12524 0.59314 4.90999 0.59314 8.31358C0.59314 11.7172 5.18117 14.5019 10.7888 14.5019C11.8475 14.5019 12.9063 14.3859 13.8867 14.1925H13.9259C14.0043 14.1925 14.0435 14.1925 14.0827 14.1925C14.6317 14.1925 15.2984 14.5793 16.8669 16.4744C16.2003 13.9217 16.2395 13.5737 16.8669 13.2643C18.161 12.6841 19.1805 11.9105 19.8864 11.0596C20.5922 10.2087 20.9844 9.2805 20.9844 8.31358C20.9844 4.90999 16.3964 2.12524 10.7888 2.12524ZM8.04379 9.04845C8.04379 9.78332 7.45557 10.3635 6.7105 10.3635H5.45568C4.71061 10.3635 4.12239 9.78332 4.12239 9.04845V7.8108C4.12239 7.07594 4.71061 6.49577 5.45568 6.49577H6.7105C7.45557 6.49577 8.04379 7.07594 8.04379 7.8108V9.04845ZM12.7495 9.04845C12.7495 9.78332 12.1612 10.3635 11.4162 10.3635H10.1613C9.41628 10.3635 8.82806 9.78332 8.82806 9.04845V7.8108C8.82806 7.07594 9.41628 6.49577 10.1613 6.49577H11.4162C12.1612 6.49577 12.7495 7.07594 12.7495 7.8108V9.04845ZM17.4551 9.04845C17.4551 9.78332 16.8669 10.3635 16.1218 10.3635H14.867C14.122 10.3635 13.5337 9.78332 13.5337 9.04845V7.8108C13.5337 7.07594 14.122 6.49577 14.867 6.49577H16.1218C16.8669 6.49577 17.4551 7.07594 17.4551 7.8108V9.04845Z" fill="#6D6D6D"/>
</svg>
