<svg width="27" height="26" viewBox="0 0 27 26" fill="none" xmlns="http://www.w3.org/2000/svg">
<path d="M25.9783 10.6861H24.9327V10.6329H13.2501V15.7541H20.5861C19.5159 18.7353 16.64 20.8754 13.2501 20.8754C8.94888 20.8754 5.46159 17.4358 5.46159 13.1935C5.46159 8.95124 8.94888 5.5117 13.2501 5.5117C15.2355 5.5117 17.0417 6.25043 18.4171 7.45712L22.0887 3.83578C19.7703 1.70471 16.6692 0.390472 13.2501 0.390472C6.08143 0.390472 0.269287 6.12304 0.269287 13.1935C0.269287 20.264 6.08143 25.9966 13.2501 25.9966C20.4187 25.9966 26.2308 20.264 26.2308 13.1935C26.2308 12.3351 26.1413 11.4971 25.9783 10.6861Z" fill="#FFC107"/>
<path d="M1.76611 7.23435L6.03094 10.3192C7.18494 7.50129 9.9797 5.5117 13.2502 5.5117C15.2356 5.5117 17.0419 6.25043 18.4172 7.45712L22.0888 3.83578C19.7704 1.70471 16.6693 0.390472 13.2502 0.390472C8.26429 0.390472 3.94039 3.16682 1.76611 7.23435Z" fill="#FF3D00"/>
<path d="M13.249 25.9965C16.6019 25.9965 19.6485 24.7309 21.952 22.6728L17.9344 19.3197C16.6311 20.2934 15.0111 20.8753 13.249 20.8753C9.8727 20.8753 7.0059 18.7519 5.9259 15.7886L1.69287 19.0054C3.84119 23.1516 8.20403 25.9965 13.249 25.9965Z" fill="#4CAF50"/>
<path d="M25.9783 10.6859H24.9327V10.6327H13.25V15.754H20.5861C20.072 17.186 19.1381 18.4208 17.9335 19.3203L17.9354 19.319L21.953 22.6721C21.6687 22.9269 26.2308 19.5949 26.2308 13.1933C26.2308 12.3349 26.1412 11.4969 25.9783 10.6859Z" fill="#1976D2"/>
</svg>
