<svg width="14" height="28" viewBox="0 0 14 28" fill="none" xmlns="http://www.w3.org/2000/svg">
<path d="M1.50778 27.6748H1.07759C0.432355 27.6748 0.00219727 27.1367 0.00219727 26.5987V1.09448C0.00219727 0.4488 0.539895 0.0183487 1.07759 0.0183487H1.50778C2.15301 0.0183487 2.58317 0.556413 2.58317 1.09448V26.5987C2.58317 27.2444 2.15301 27.6748 1.50778 27.6748Z" fill="#631363"/>
<path d="M11.9395 27.6748H11.5095C10.8642 27.6748 10.4341 27.1367 10.4341 26.5987V1.09448C10.4341 0.4488 10.9718 0.0183487 11.5095 0.0183487H11.9395C12.5848 0.0183487 13.0149 0.556413 13.0149 1.09448V26.5987C13.0149 27.2444 12.5848 27.6748 11.9395 27.6748Z" fill="#631363"/>
</svg>
