<svg width="69" height="52" viewBox="0 0 69 52" fill="none" xmlns="http://www.w3.org/2000/svg">
<path d="M34.8999 30.1699L68.4199 4.40991C68.2206 3.4004 67.6769 2.49162 66.8816 1.83862C66.0863 1.18563 65.0891 0.829133 64.0601 0.83008H4.59009C3.57708 0.829436 2.59412 1.17524 1.80469 1.81006C1.01526 2.44488 0.466747 3.33052 0.25 4.32007L34.8999 30.1699Z" fill="#6D6D6D"/>
<path d="M68.2104 43.1101C68.3632 43.1881 68.5073 43.2817 68.6404 43.3899V8.87988L48.1504 25.5701L68.1504 43.1001L68.2104 43.1101Z" fill="#6D6D6D"/>
<path d="M68.1104 48.5398L44.9402 28.2798L34.9402 36.0798L23.5203 27.3896L0.320312 47.6797C0.379208 48.8126 0.870283 49.8797 1.69263 50.6611C2.51497 51.4425 3.60584 51.8786 4.74023 51.8796H64.2202C65.1405 51.8734 66.0362 51.5814 66.7832 51.0439C67.5303 50.5065 68.0917 49.7502 68.3901 48.8796C68.2901 48.7796 68.2003 48.6598 68.1104 48.5398Z" fill="#6D6D6D"/>
<path d="M20.2712 24.6997L0.28125 9.71973V42.1997L20.2712 24.6997Z" fill="#6D6D6D"/>
</svg>
