<svg xmlns="http://www.w3.org/2000/svg" width="18" height="8" viewBox="0 0 18 8" fill="none">
<path d="M4.36627 7.53166C2.42312 7.53166 0.850098 5.9235 0.850098 3.93672C0.850098 1.94994 2.42312 0.341553 4.36627 0.341553C6.30943 0.341553 7.88247 1.94994 7.88247 3.93672C7.88247 5.82889 6.30943 7.53166 4.36627 7.53166ZM4.36627 0.909065C2.79324 0.909065 1.4978 2.23368 1.4978 3.84202C1.4978 5.45037 2.79324 6.77498 4.36627 6.77498C5.9393 6.77498 7.23474 5.45037 7.23474 3.84202C7.23474 2.23368 5.9393 0.909065 4.36627 0.909065Z" fill="#F4F4F4"/>
<path d="M13.6192 7.53166C11.676 7.53166 10.103 5.9235 10.103 3.93672C10.103 1.94994 11.676 0.341553 13.6192 0.341553C15.5624 0.341553 17.1354 1.94994 17.1354 3.93672C17.2279 5.82889 15.5624 7.53166 13.6192 7.53166ZM13.6192 0.909065C12.0462 0.909065 10.7507 2.23368 10.7507 3.84202C10.7507 5.45037 12.0462 6.77498 13.6192 6.77498C15.1922 6.77498 16.4877 5.45037 16.4877 3.84202C16.4877 2.23368 15.1922 0.909065 13.6192 0.909065Z" fill="#F4F4F4"/>
<path d="M13.7116 6.86938H4.36597V7.5316H13.7116V6.86938Z" fill="#F4F4F4"/>
</svg>