<svg width="55" height="51" viewBox="0 0 55 51" fill="none" xmlns="http://www.w3.org/2000/svg">
<path d="M54.4091 21.7C54.4091 9.69995 42.229 0 27.219 0C12.209 0 0.0390625 9.71995 0.0390625 21.7C0.0390625 33.68 12.209 43.3999 27.219 43.3999C30.8217 43.4093 34.402 42.8318 37.819 41.6899L54.079 50.8201L50.009 33.53C52.8105 30.2205 54.3669 26.0357 54.4091 21.7ZM13.829 25.9299C12.9414 25.928 12.0743 25.663 11.3373 25.1685C10.6002 24.6739 10.0263 23.972 9.68799 23.1514C9.34968 22.3308 9.26215 21.4282 9.43652 20.5579C9.6109 19.6875 10.0393 18.8884 10.6676 18.2615C11.2959 17.6345 12.096 17.2081 12.9667 17.0356C13.8374 16.8632 14.7397 16.9526 15.5596 17.2927C16.3794 17.6329 17.0801 18.2084 17.573 18.9465C18.0659 19.6847 18.329 20.5523 18.329 21.4399C18.329 22.0304 18.2126 22.6152 17.9863 23.1606C17.7601 23.706 17.4284 24.2013 17.0104 24.6184C16.5924 25.0355 16.0962 25.366 15.5503 25.5911C15.0044 25.8161 14.4195 25.9312 13.829 25.9299ZM27.5291 25.9299C26.641 25.9299 25.7729 25.6667 25.0345 25.1733C24.2962 24.68 23.7206 23.9786 23.3807 23.1582C23.0409 22.3378 22.952 21.4349 23.1252 20.564C23.2985 19.693 23.7262 18.8931 24.3541 18.2651C24.9821 17.6372 25.7821 17.2096 26.6531 17.0364C27.5241 16.8631 28.4269 16.9519 29.2473 17.2917C30.0678 17.6316 30.769 18.2072 31.2623 18.9456C31.7557 19.6839 32.019 20.5519 32.019 21.4399C32.0191 22.033 31.9016 22.6201 31.6735 23.1675C31.4453 23.7149 31.111 24.2117 30.6898 24.6292C30.2686 25.0466 29.769 25.3766 29.2196 25.5999C28.6702 25.8231 28.082 25.9352 27.489 25.9299H27.5291ZM40.849 25.9299C39.961 25.9299 39.0929 25.6667 38.3545 25.1733C37.6161 24.68 37.0406 23.9786 36.7008 23.1582C36.361 22.3378 36.2721 21.4349 36.4453 20.564C36.6186 19.693 37.0461 18.8931 37.6741 18.2651C38.302 17.6372 39.102 17.2096 39.973 17.0364C40.844 16.8631 41.7468 16.9519 42.5673 17.2917C43.3877 17.6316 44.0889 18.2072 44.5823 18.9456C45.0756 19.6839 45.339 20.5519 45.339 21.4399C45.339 22.6308 44.866 23.773 44.0239 24.615C43.1819 25.457 42.0398 25.9299 40.849 25.9299Z" fill="#6D6D6D"/>
</svg>
