<svg width="21" height="29" viewBox="0 0 21 29" fill="none" xmlns="http://www.w3.org/2000/svg">
<path d="M10.2623 20.205C12.9508 20.205 15.1016 18.0527 15.1016 15.3624V11.7034L20.1561 6.64563C20.5862 6.21518 20.5862 5.46179 20.1561 4.92372C19.7259 4.49327 18.973 4.49327 18.4353 4.92372L15.1016 8.25983V5.78468C15.1016 3.09435 12.9508 0.942097 10.2623 0.942097C7.57386 0.942097 5.42307 3.09435 5.42307 5.78468V15.3624C5.42307 16.1157 5.53063 16.7612 5.85325 17.4069L4.99288 18.2679C4.45518 17.407 4.24016 16.3309 4.24016 15.3624C4.24016 14.7167 3.70249 14.1785 3.05725 14.1785C2.41201 14.1785 1.87434 14.7167 1.87434 15.3624C1.87434 16.9766 2.41196 18.6982 3.27228 19.9895L0.368761 22.8953C-0.0613969 23.3257 -0.0613969 24.0789 0.368761 24.6169C0.798919 25.0474 1.55167 25.0474 2.08937 24.6169L4.88537 21.8192C6.0683 22.7877 7.46634 23.4333 9.07944 23.6485V26.1237H8.43423C7.78899 26.1237 7.25132 26.6616 7.25132 27.3073C7.25132 27.9529 7.78899 28.4911 8.43423 28.4911H11.983C12.6282 28.4911 13.166 27.9529 13.166 27.3073C13.166 26.6616 12.6282 26.1237 11.983 26.1237H11.3377V23.756C15.4242 23.1103 18.543 19.6667 18.543 15.4698C18.543 14.8242 18.0052 14.2863 17.3599 14.2863C16.7147 14.2863 16.177 14.8242 16.177 15.4698C16.177 18.8058 13.4886 21.4963 10.1548 21.4963C8.86436 21.4963 7.57386 21.0659 6.49846 20.205L7.35883 19.344C8.32669 19.8821 9.29449 20.205 10.2623 20.205ZM12.7358 15.3624C12.7358 16.6537 11.6603 17.7298 10.3699 17.7298C10.0472 17.7298 9.61708 17.6223 9.29446 17.5146L12.7358 14.0708V15.3624ZM7.89653 15.3624V5.78468C7.89653 4.49332 8.97187 3.41725 10.2623 3.41725C11.5528 3.41725 12.6283 4.49332 12.6283 5.78468V10.735L7.89653 15.3624C7.89653 15.47 7.89653 15.47 7.89653 15.3624Z" fill="#631363"/>
</svg>
