<svg width="19" height="14" viewBox="0 0 19 14" fill="none" xmlns="http://www.w3.org/2000/svg">
<path d="M18.0999 3.90009V1.6001C18.0999 1.1001 17.7 0.700073 17.2 0.700073H1C0.5 0.700073 0.0998535 1.1001 0.0998535 1.6001V3.90009H18.0999Z" fill="#6D6D6D"/>
<path d="M0.0998535 6.30008V13.0001C0.0998535 13.5001 0.5 13.9001 1 13.9001H17.2C17.7 13.9001 18.0999 13.5001 18.0999 13.0001V6.30008H0.0998535ZM4.59985 12.0001H2.59985C2.29985 12.0001 2 11.7001 2 11.4001C2 11.1001 2.29985 10.8001 2.59985 10.8001H4.59985C4.89985 10.8001 5.19995 11.1001 5.19995 11.4001C5.19995 11.7001 4.89985 12.0001 4.59985 12.0001ZM6.59985 9.70007H2.5C2.2 9.70007 1.8999 9.4001 1.8999 9.1001C1.8999 8.8001 2.2 8.50009 2.5 8.50009H6.59985C6.89985 8.50009 7.19995 8.8001 7.19995 9.1001C7.19995 9.5001 6.99985 9.70007 6.59985 9.70007Z" fill="#6D6D6D"/>
</svg>
