<svg width="21" height="21" viewBox="0 0 21 21" fill="none" xmlns="http://www.w3.org/2000/svg">
<path d="M12.9 6.97136L8.59998 11.2697L6.99994 9.67029C6.59994 9.27045 5.99998 9.17048 5.59998 9.57032C5.19998 9.97016 5.09994 10.5699 5.49994 10.9698L5.59998 11.0697L7.99994 13.4688C8.19994 13.6687 8.39995 13.7687 8.69995 13.7687C8.99995 13.7687 9.19996 13.6687 9.39996 13.4688L14.4 8.47077C14.8 8.07092 14.8 7.47115 14.4 7.07131C13.9 6.57151 13.2 6.57152 12.9 6.97136ZM10.1 0.174042C4.59998 0.174042 0.0999756 4.67226 0.0999756 10.1701C0.0999756 15.6679 4.59998 20.1661 10.1 20.1661C15.6 20.1661 20.1 15.6679 20.1 10.1701C20.1 4.67226 15.7 0.174042 10.1 0.174042ZM10.1 18.1669C5.69998 18.1669 2.09998 14.5684 2.09998 10.1701C2.09998 5.77183 5.69998 2.17325 10.1 2.17325C14.5 2.17325 18.1 5.77183 18.1 10.1701C18.1 14.5684 14.5 18.1669 10.1 18.1669Z" fill="#40F440"/>
</svg>
