<svg width="23" height="27" viewBox="0 0 23 27" fill="none" xmlns="http://www.w3.org/2000/svg">
<path d="M0 11.4307C0 16.8504 3.73516 21.3832 8.74795 22.5657L11.5001 27L14.252 22.5657C19.2648 21.3832 23 16.8504 23 11.4307C23 5.12412 17.8888 0 11.5983 0C5.30771 0 0 5.02558 0 11.4307ZM20.1494 11.4307C20.1494 13.7956 19.2648 15.865 17.6922 17.5402C17.5939 14.1898 13.7607 15.7664 13.6625 13.8942V13.7956C14.2522 13.2044 14.5469 12.3175 14.7435 11.3321C15.0384 11.135 15.0385 10.7409 15.1368 10.2482C15.2351 9.65695 15.0384 9.06572 14.7435 8.96718C14.5469 7.88324 14.3503 6.89784 13.7606 6.50368C13.564 5.8139 12.2863 5.6168 11.4017 5.6168C11.1069 5.6168 10.8119 5.6168 10.6154 5.6168C8.94444 5.81388 8.35484 6.99634 8.05997 8.8686C7.66681 8.96714 7.56852 9.45989 7.56852 10.1497C7.66681 10.6424 7.7651 11.1351 8.05997 11.2336C8.35484 12.219 8.55128 13.0073 9.14102 13.6971V13.7956C9.04273 15.6679 5.20956 14.0912 5.11127 17.4416C3.63692 15.865 2.65402 13.6971 2.65402 11.3321C2.65402 6.50364 6.58553 2.56208 11.4017 2.56208C16.2179 2.56208 20.1494 6.50368 20.1494 11.4307Z" fill="#5F1762"/>
</svg>
