<svg width="52" height="49" viewBox="0 0 52 49" fill="none" xmlns="http://www.w3.org/2000/svg">
<path d="M15.7105 30.9999C16.0149 31.7188 16.1253 32.5051 16.0306 33.28C15.9206 34.28 15.6406 35.4999 16.5106 35.9299C16.8828 36.0602 17.2882 36.0602 17.6605 35.9299C22.7905 34.9299 28.1706 31.68 32.2606 28.52C35.0306 26.38 38.0005 23.4099 38.9705 19.9699C39.1378 19.4974 39.1622 18.9862 39.0406 18.4999C38.9313 18.2385 38.7677 18.0034 38.5606 17.81C36.6906 16.02 33.9405 16.1099 32.4105 13.6899C31.0205 11.4899 32.0106 8.89002 33.5706 7.07002C35.2131 5.06967 37.218 3.39691 39.4805 2.13984C42.1605 0.729839 45.6806 -0.300082 48.0606 1.96992C49.6732 3.56786 50.7256 5.6445 51.0606 7.88984C51.8906 12.4898 51.0006 17.4998 49.5606 21.8898C48.4227 25.031 46.8034 27.9764 44.7606 30.6201C40.4406 36.5601 35.0805 41.9398 28.4705 45.1498C21.8605 48.3598 13.8605 49.15 7.12054 46.26C3.89054 44.84 -0.0794553 41.4299 0.120545 37.4799C0.280545 33.8299 4.99052 31.5898 7.72052 29.6498C8.46855 29.0548 9.31453 28.5947 10.2205 28.29C10.948 28.0858 11.7144 28.0618 12.4532 28.2204C13.192 28.379 13.8809 28.7151 14.4605 29.1999C15.0213 29.6857 15.4512 30.3047 15.7105 30.9999Z" fill="#6D6D6D"/>
</svg>
