<svg width="42" height="16" viewBox="0 0 42 16" fill="none" xmlns="http://www.w3.org/2000/svg">
<path d="M2.01289 6.43747C1.69027 6.76031 1.26022 7.08305 1.04514 7.40588C0.507441 8.26679 0.292335 9.34297 0.614954 10.4191L1.15265 13.0017C1.69035 16.1225 11.0462 14.6159 12.6593 11.9256C12.7669 11.7103 12.8744 11.3876 12.7668 11.1723L12.5518 9.02008C14.2725 6.76021 17.7138 5.68397 20.94 5.68397C24.2737 5.8992 27.7149 7.0831 29.2204 9.34297L29.0054 11.3875C28.5753 14.2931 38.7915 16.7682 40.4046 14.0778C40.5121 13.9702 40.5121 13.8627 40.5121 13.6475L41.1573 11.2801C41.4799 9.77347 41.0498 8.05161 39.8669 7.19071C35.4578 2.8862 28.1451 0.733834 21.0475 0.626221C13.9499 0.733834 6.85217 2.56341 2.01289 6.43747Z" fill="#F4F4F4"/>
</svg>
