<svg width="23" height="23" viewBox="0 0 23 23" fill="none" xmlns="http://www.w3.org/2000/svg">
<path d="M19.4927 22.3C19.4034 22.3 19.3142 22.3 19.2249 22.3C15.9195 21.9427 12.6142 20.7814 9.84486 18.9947C7.2542 17.2974 4.93149 15.064 3.32349 12.4733C1.53682 9.61467 0.375532 6.39858 0.0181983 3.00392C-0.160468 1.48525 1.00082 0.234758 2.43015 0.0560913C2.51949 0.0560913 2.60886 0.0560913 2.6982 0.0560913H5.91407C7.25407 0.0560913 8.4154 1.03863 8.59407 2.37863C8.6834 3.36129 8.95144 4.34392 9.30878 5.23725C9.66611 6.21992 9.39815 7.29209 8.68349 8.09609L7.61153 9.16805C8.95153 11.4907 10.9168 13.3667 13.1502 14.7067L14.2221 13.6347C14.9368 12.92 16.0981 12.6521 17.0807 13.0094C17.9741 13.3668 18.9567 13.6346 19.9394 13.7239C21.2794 13.9026 22.2621 15.0639 22.2621 16.4039V19.62C22.2621 20.3347 21.9942 21.0494 21.4582 21.4961C20.8329 22.0321 20.2074 22.3 19.4927 22.3ZM5.82486 1.21725H2.60878C2.60878 1.21725 2.51949 1.21725 2.43015 1.21725C1.53682 1.30658 0.911401 2.02138 1.00073 2.91471C1.35807 6.04138 2.43007 9.16805 4.1274 11.848C5.7354 14.3494 7.87953 16.4933 10.2915 18.012C12.9715 19.7093 16.0089 20.8706 19.2249 21.1386C19.2249 21.1386 19.3142 21.1386 19.4035 21.1386C19.8502 21.1386 20.2074 20.96 20.4754 20.692C20.7434 20.424 20.9221 19.9773 20.9221 19.62V16.4039C20.9221 15.5999 20.3861 14.9748 19.5821 14.7961C18.5101 14.6174 17.5274 14.4386 16.4554 13.992C15.9194 13.8133 15.2047 13.9028 14.8474 14.3494L13.2394 15.9573L12.8821 15.7786C10.1128 14.26 7.87953 11.9374 6.27153 9.16805L6.09269 8.81058L7.70073 7.20276C8.1474 6.75609 8.23687 6.13071 8.0582 5.59471C7.70086 4.61205 7.43273 3.54005 7.25407 2.46805C7.25407 1.75338 6.62886 1.21725 5.82486 1.21725Z" fill="#631363"/>
</svg>
