<svg width="34" height="29" viewBox="0 0 34 29" fill="none" xmlns="http://www.w3.org/2000/svg">
<path d="M33.8706 1.74023V1.67029C33.857 1.56077 33.8303 1.45325 33.7907 1.35022V1.27026C33.7553 1.18625 33.7116 1.10588 33.6606 1.03027V0.960205C33.6054 0.898643 33.5453 0.841858 33.4807 0.790283L33.3506 0.710205C33.2759 0.660384 33.1952 0.620078 33.1106 0.59021H33.0407C32.9293 0.560447 32.8155 0.540436 32.7007 0.530273H32.6406H32.3706H32.2807C32.1943 0.550927 32.1105 0.581077 32.0307 0.620239L1.22067 18.1002C0.95952 18.2491 0.754525 18.4798 0.637421 18.7567C0.520316 19.0336 0.497673 19.3413 0.572723 19.6324C0.647774 19.9235 0.816329 20.1818 1.0527 20.3676C1.28908 20.5533 1.57999 20.6562 1.88058 20.6603L12.1406 20.2302L12.3405 27.1703V27.2402C12.3473 27.4024 12.3847 27.5619 12.4507 27.7102C12.5137 27.8485 12.6019 27.974 12.7107 28.0802L12.8305 28.2002C12.9527 28.2949 13.0874 28.3724 13.2307 28.4303C13.3823 28.481 13.5408 28.508 13.7007 28.5103C13.7469 28.5187 13.7943 28.5187 13.8405 28.5103H13.9507H14.1206H14.2107L14.3806 28.4103H14.4406L14.6306 28.2502L20.1906 22.2502L28.5608 24.5802C28.6799 24.6003 28.8015 24.6003 28.9206 24.5802C29.2426 24.5805 29.5544 24.4674 29.8012 24.2607C30.0481 24.0541 30.2143 23.7671 30.2707 23.4502L33.9507 2.19019V2.00024C33.936 1.91034 33.909 1.82285 33.8706 1.74023ZM21.7807 9.49023L12.7807 17.4902L7.35056 17.7202L21.7807 9.49023ZM30.5007 5.49023L27.7407 21.4303L16.1106 18.1902L30.5007 5.49023Z" fill="#40F440"/>
</svg>
