<svg width="28" height="17" viewBox="0 0 28 17" fill="none" xmlns="http://www.w3.org/2000/svg">
<path d="M27.242 14.1197C27.3202 14.1584 27.3593 14.1972 27.3984 14.1972V3.16507L19.3864 8.50686L27.242 14.1197Z" fill="#631363"/>
<path d="M14.2282 9.97805L27.321 1.73298C27.1646 1.07492 26.4611 0.571701 25.6013 0.571701H2.34697C1.52623 0.571701 0.822714 1.03627 0.666382 1.69432L14.2282 9.97805Z" fill="#631363"/>
<path d="M27.2022 15.8236L18.1349 9.32042L14.2267 11.7978L9.77119 9.01073L0.703918 15.5139C0.743001 16.2881 1.52467 16.8687 2.42358 16.8687H25.6779C26.4205 16.8687 27.0849 16.4816 27.3194 15.901C27.2804 15.901 27.2413 15.901 27.2022 15.8236Z" fill="#40F440"/>
<path d="M8.52051 8.23653L0.703918 3.43663V13.8107L8.52051 8.23653Z" fill="#40F440"/>
</svg>
