<svg width="28" height="17" viewBox="0 0 28 17" fill="none" xmlns="http://www.w3.org/2000/svg">
<path d="M27.1613 13.9288C27.2394 13.9675 27.2785 14.0062 27.3176 14.0062V2.97408L19.3056 8.31597L27.1613 13.9288Z" fill="#631363"/>
<path d="M14.1474 9.8256L27.2402 1.58062C27.0838 0.922561 26.3803 0.419342 25.5205 0.419342H2.26617C1.44543 0.419342 0.741964 0.883814 0.585632 1.54187L14.1474 9.8256Z" fill="#631363"/>
<path d="M27.1214 15.6712L18.0542 9.16803L14.1459 11.6455L9.69039 8.85834L0.623169 15.3615C0.662252 16.1357 1.44392 16.7163 2.34283 16.7163H25.5972C26.3398 16.7163 27.0041 16.3292 27.2386 15.7486C27.1996 15.7099 27.1605 15.7099 27.1214 15.6712Z" fill="#40F440"/>
<path d="M8.43976 8.04502L0.623169 3.28378V13.6579L8.43976 8.04502Z" fill="#40F440"/>
</svg>
