<svg width="20" height="19" viewBox="0 0 20 19" fill="none" xmlns="http://www.w3.org/2000/svg">
<path d="M20 8.10214C20 3.64823 15.514 0 9.99994 0C4.48593 0 0 3.60085 0 8.10214C0 12.6034 4.48593 16.2045 9.99994 16.2045C11.3084 16.2045 12.6635 15.9677 13.8785 15.5886L19.8598 19L18.3645 12.5562C19.3925 11.3243 19.9533 9.76051 20 8.10214ZM5.09341 9.71331C4.15883 9.71331 3.45789 8.9552 3.45789 8.05494C3.45789 7.1073 4.20556 6.39657 5.09341 6.39657C5.98126 6.39657 6.72892 7.15468 6.72892 8.05494C6.72892 8.90782 5.98126 9.71331 5.09341 9.71331ZM10.0935 9.71331C9.15891 9.71331 8.45798 8.9552 8.45798 8.05494C8.45798 7.1073 9.20564 6.39657 10.0935 6.39657C11.0281 6.39657 11.729 7.15468 11.729 8.05494C11.7757 8.90782 11.0281 9.71331 10.0935 9.71331ZM15 9.71331C14.0654 9.71331 13.3645 8.9552 13.3645 8.05494C13.3645 7.1073 14.1122 6.39657 15 6.39657C15.8879 6.39657 16.6355 7.15468 16.6355 8.05494C16.6355 8.90782 15.9346 9.71331 15 9.71331Z" fill="#631363"/>
</svg>
