<svg width="21" height="17" viewBox="0 0 21 17" fill="none" xmlns="http://www.w3.org/2000/svg">
<path d="M10.5281 9.59634L20.4026 1.9608C20.2616 1.34427 19.7444 0.869873 19.0861 0.869873H1.54714C0.935863 0.869873 0.418652 1.29679 0.277588 1.91333L10.5281 9.59634Z" fill="#631363"/>
<path d="M20.355 13.4377C20.402 13.4851 20.449 13.4852 20.496 13.5326V3.2887L14.4773 8.2209L20.355 13.4377Z" fill="#631363"/>
<path d="M20.3075 15.0503L13.4894 9.02717L10.527 11.351L7.18858 8.79004L0.370483 14.8132C0.417505 15.5245 0.981784 16.046 1.6871 16.046H19.179C19.7433 16.046 20.2604 15.6667 20.4015 15.145L20.3075 15.0503Z" fill="#631363"/>
<path d="M6.24895 7.93646L0.324219 3.52576V13.1533L6.24895 7.93646Z" fill="#631363"/>
</svg>
