<svg width="19" height="18" viewBox="0 0 19 18" fill="none" xmlns="http://www.w3.org/2000/svg">
<path d="M5.75197 11.7033C5.8462 11.9949 5.89328 12.2864 5.84617 12.5779C5.79906 12.9667 5.70479 13.4041 6.03457 13.5499C6.17591 13.5985 6.31732 13.5985 6.45865 13.5499C8.34313 13.1611 10.369 11.8977 11.8765 10.7313C12.913 9.90518 13.9965 8.78729 14.3734 7.42656C14.4676 7.23217 14.4677 7.03793 14.4205 6.84354C14.3734 6.74634 14.3264 6.6491 14.2321 6.5519C13.5255 5.87154 12.5361 5.92004 11.9707 4.99669C11.4525 4.17053 11.8294 3.15013 12.3947 2.46976C13.0072 1.69221 13.7139 1.06049 14.5619 0.574511C15.5513 0.0399389 16.8704 -0.348936 17.7655 0.477221C18.378 1.10899 18.7549 1.8866 18.8962 2.71275C19.1789 4.46226 18.8491 6.35756 18.3309 8.05847C17.9069 9.22481 17.2944 10.3911 16.5406 11.363C14.9388 13.5985 12.96 15.6881 10.5102 16.9031C8.06039 18.118 5.09231 18.4098 2.59537 17.3406C1.41757 16.8061 -0.0900167 15.4937 0.00420745 13.9872C0.0984316 12.6265 1.84158 11.7519 2.83093 11.023C3.1136 10.78 3.44339 10.5855 3.77317 10.4883C4.33852 10.3426 4.90388 10.4396 5.32789 10.8284C5.51634 11.2172 5.65775 11.4603 5.75197 11.7033Z" fill="#631363"/>
</svg>
