<svg width="15" height="8" viewBox="0 0 15 8" fill="none" xmlns="http://www.w3.org/2000/svg">
<path d="M13.4476 1.74306H1.45082C1.05092 1.74306 0.750992 1.44395 0.750992 1.04506C0.750992 0.646165 1.05092 0.347046 1.45082 0.347046H13.4476C13.8475 0.347046 14.1474 0.646165 14.1474 1.04506C14.2474 1.44395 13.8475 1.74306 13.4476 1.74306Z" fill="#5F1762"/>
<path d="M10.0486 4.73403H1.45082C1.05092 4.73403 0.750992 4.43491 0.750992 4.03602C0.750992 3.63713 1.05092 3.33801 1.45082 3.33801H10.0486C10.4485 3.33801 10.7483 3.63713 10.7483 4.03602C10.8483 4.43491 10.4485 4.73403 10.0486 4.73403Z" fill="#5F1762"/>
<path d="M6.74939 7.82482H1.45082C1.05092 7.82482 0.750992 7.52546 0.750992 7.12657C0.750992 6.72768 1.05092 6.42856 1.45082 6.42856H6.74939C7.14928 6.42856 7.44922 6.72768 7.44922 7.12657C7.44922 7.42574 7.14928 7.82482 6.74939 7.82482Z" fill="#5F1762"/>
</svg>
