<svg width="31" height="28" viewBox="0 0 31 28" fill="none" xmlns="http://www.w3.org/2000/svg">
<path d="M26.5978 21.6799C26.2752 21.6799 26.0602 21.5725 25.8451 21.3572C25.4149 20.9268 25.4149 20.1735 25.8451 19.743C28.9637 16.5146 28.9637 11.349 25.8451 8.22825C25.4149 7.79779 25.4149 7.0445 25.8451 6.61405C26.2752 6.1836 27.028 6.1836 27.4582 6.61405C31.5447 10.7033 31.5447 17.2679 27.4582 21.3572C27.1356 21.5725 26.9204 21.6799 26.5978 21.6799Z" fill="#631363"/>
<path d="M18.4249 0.587892C17.9947 0.372666 17.5646 0.480121 17.2419 0.695347L8.31611 7.69019H2.50895C1.32601 7.69019 0.358154 8.6587 0.358154 9.84244V18.1288C0.358154 19.3126 1.32601 20.2811 2.50895 20.2811H8.31611L17.2419 27.2759C17.457 27.3836 17.6721 27.4911 17.8872 27.4911C18.1022 27.4911 18.2098 27.491 18.4249 27.3834C18.855 27.1682 19.0701 26.8454 19.0701 26.415V1.66402C19.0701 1.23357 18.855 0.803117 18.4249 0.587892ZM2.61659 9.95016H7.56338V18.0211H2.61659V9.95016ZM16.8118 24.0476L9.82169 18.5592V9.30438L16.8118 3.81628V24.0476Z" fill="#631363"/>
<path d="M23.8017 17.6982L22.9413 16.945L22.1886 16.1918C22.7263 15.6537 23.049 14.9004 23.049 14.0395C23.049 13.2862 22.7263 12.5329 22.1886 11.8873C21.7584 11.4568 21.7584 10.7035 22.1886 10.2731C22.6187 9.84261 23.3715 9.84261 23.8017 10.2731C24.7695 11.2416 25.3073 12.5328 25.3073 13.9318C25.3073 15.4384 24.7695 16.7297 23.8017 17.6982Z" fill="#631363"/>
</svg>
