<svg width="21" height="19" viewBox="0 0 21 19" fill="none" xmlns="http://www.w3.org/2000/svg">
<path d="M8.58345 18.5472C8.18377 18.5472 7.78419 18.2471 7.68427 17.947L4.88646 10.5444H1.58904C0.989524 10.5444 0.589844 10.1443 0.589844 9.54411C0.589844 8.9439 0.989524 8.54377 1.58904 8.54377H5.58585C5.98553 8.54377 6.38536 8.84384 6.48528 9.14395L8.38366 14.1456L11.5811 1.24124C11.681 0.841103 12.0808 0.541074 12.4805 0.44104C12.8802 0.44104 13.2798 0.641084 13.4797 1.04122L16.2773 8.44376H19.5747C20.1742 8.44376 20.5739 8.84389 20.5739 9.4441C20.5739 10.0443 20.1742 10.4444 19.5747 10.4444H15.5779C15.1782 10.4444 14.7786 10.1442 14.6787 9.84414L12.78 4.84244L9.58265 17.7468C9.38281 18.247 9.08305 18.5472 8.58345 18.5472Z" fill="#5F1762"/>
</svg>
