<svg width="25" height="20" viewBox="0 0 25 20" fill="none" xmlns="http://www.w3.org/2000/svg">
<path d="M19.4732 8.89888L11.5793 0.996298C11.2796 0.696196 10.7799 0.496128 10.2803 0.496128H2.68655C1.68735 0.496128 0.887939 1.29633 0.887939 2.29667V9.89922C0.887939 10.3994 1.08778 10.7996 1.38754 11.1997L9.28113 19.1024C9.98057 19.8027 11.0797 19.8027 11.7791 19.1024L19.3732 11.4999C20.1725 10.6996 20.1726 9.59912 19.4732 8.89888ZM5.18455 6.39803C4.18535 6.39803 3.38594 5.59784 3.38594 4.5975C3.38594 3.59716 4.18535 2.79684 5.18455 2.79684C6.18375 2.79684 6.98316 3.59716 6.98316 4.5975C6.98316 5.59784 6.18375 6.39803 5.18455 6.39803ZM24.2691 11.3997L16.6754 19.0024C15.9759 19.7026 14.8768 19.7026 14.1774 19.0024L20.6722 12.5002C21.2717 11.9 21.6714 10.9997 21.6714 10.0994C21.6714 9.19906 21.3716 8.39876 20.6722 7.69852L13.378 0.395996H15.1766C15.6762 0.395996 16.0759 0.596064 16.4756 0.896166L24.3692 8.79887C24.9687 9.59914 24.9686 10.6995 24.2691 11.3997Z" fill="#5F1762"/>
</svg>
