<svg width="23" height="23" viewBox="0 0 23 23" fill="none" xmlns="http://www.w3.org/2000/svg">
<path d="M11.3813 22.5846C5.28622 22.5846 0.390137 17.683 0.390137 11.5809C0.390137 5.47881 5.28622 0.577148 11.3813 0.577148C17.4765 0.577148 22.3726 5.47881 22.3726 11.5809C22.3726 17.683 17.4765 22.5846 11.3813 22.5846ZM11.3813 2.57783C6.38534 2.57783 2.38854 6.57919 2.38854 11.5809C2.38854 16.5826 6.38534 20.5839 11.3813 20.5839C16.3774 20.5839 20.3742 16.5826 20.3742 11.5809C20.3742 6.57919 16.3774 2.57783 11.3813 2.57783Z" fill="#5F1762"/>
<path d="M13.3796 12.5813H9.38275C8.78323 12.5813 8.38354 12.1812 8.38354 11.581V5.57895C8.38354 4.97875 8.78323 4.57861 9.38275 4.57861C9.98227 4.57861 10.3819 4.97875 10.3819 5.57895V10.5807H13.3796C13.9791 10.5807 14.3788 10.9808 14.3788 11.581C14.3788 12.1812 13.8792 12.5813 13.3796 12.5813Z" fill="#5F1762"/>
</svg>
