<svg width="22" height="23" viewBox="0 0 22 23" fill="none" xmlns="http://www.w3.org/2000/svg">
<path d="M10.9672 11.7918C7.66182 11.7918 5.07129 9.11176 5.07129 5.89576C5.07129 2.59043 7.75116 -0.000106812 10.9672 -0.000106812C14.2725 -0.000106812 16.8632 2.67976 16.8632 5.89576C16.9526 9.2011 14.2725 11.7918 10.9672 11.7918ZM10.9672 1.07185C8.28716 1.07185 6.14325 3.21576 6.14325 5.89576C6.14325 8.57576 8.28716 10.7199 10.9672 10.7199C13.6472 10.7199 15.7913 8.57576 15.7913 5.89576C15.7913 3.21576 13.6472 1.07185 10.9672 1.07185Z" fill="#631363"/>
<path d="M20.0793 22.5118C19.9899 22.5118 19.9006 22.5118 19.8112 22.5118C16.8632 22.1545 13.9151 21.9758 10.9671 21.9758C7.84042 21.9758 4.89251 22.1545 2.12318 22.5118C1.49784 22.6012 0.872466 22.3332 0.515132 21.8866C0.0684657 21.4399 -0.110201 20.8144 0.0684657 20.1891C1.31913 15.1864 5.78576 11.7024 10.9671 11.7024C16.1484 11.7024 20.6153 15.1864 21.8659 20.1891C22.0446 20.8144 21.8659 21.4399 21.4193 21.8866C21.1513 22.3332 20.6153 22.5118 20.0793 22.5118ZM10.9671 12.8638C6.32176 12.8638 2.30176 15.9906 1.14042 20.5466C1.05109 20.8146 1.1406 21.0824 1.31926 21.261C1.49793 21.4397 1.67655 21.5291 1.94455 21.5291C4.71389 21.1718 7.75109 20.9038 10.9671 20.9038C13.9151 20.9038 16.9525 21.0824 19.9898 21.5291C20.2578 21.5291 20.5258 21.4397 20.6151 21.261C20.7938 21.0824 20.8831 20.8144 20.7938 20.6358C19.7218 15.9904 15.6124 12.8638 10.9671 12.8638Z" fill="#631363"/>
</svg>
