<svg width="37" height="39" viewBox="0 0 37 39" fill="none" xmlns="http://www.w3.org/2000/svg">
<path d="M18.2771 19.6446C23.4798 19.6446 27.6974 15.4555 27.6974 10.2881C27.6974 5.12073 23.4798 0.931824 18.2771 0.931824C13.0743 0.931824 8.85669 5.12073 8.85669 10.2881C8.85669 15.4555 13.0743 19.6446 18.2771 19.6446Z" fill="#E0E0E0"/>
<path d="M36.4427 35.4622C34.415 27.4065 27.0223 21.4067 18.2779 21.4067C9.53341 21.4067 2.14075 27.4065 0.113048 35.4622C-0.267146 37.0566 1.04241 38.5252 2.64767 38.3154C7.50571 37.6441 12.7862 37.3085 18.2779 37.3085C23.7696 37.3085 29.0078 37.686 33.9081 38.3154C35.5133 38.5252 36.8651 36.9727 36.4427 35.4622Z" fill="#E0E0E0"/>
</svg>