<svg width="25" height="20" viewBox="0 0 25 20" fill="none" xmlns="http://www.w3.org/2000/svg">
<path d="M14.07 0.674561C15.069 0.674561 15.8681 1.47166 15.8681 2.46806V4.26156H17.766C18.3654 4.26156 18.9649 4.56049 19.4644 4.95905L22.3612 7.84862C22.7608 8.24718 23.0604 8.94461 23.0604 9.54244V13.827C23.7597 13.827 24.2591 14.3251 24.2591 15.0226C24.2591 15.7201 23.7597 16.2183 23.0604 16.2183H21.8618C21.8618 18.2111 20.2634 19.8054 18.2655 19.8054C16.2676 19.8054 14.6695 18.2111 14.6695 16.2183H9.87454C9.87454 18.2111 8.27615 19.8054 6.27828 19.8054C4.28041 19.8054 2.68226 18.2111 2.68226 16.2183H2.0828C1.08386 16.2183 0.284668 15.4212 0.284668 14.4248V2.46806C0.284668 1.47166 1.08386 0.674561 2.0828 0.674561H14.07ZM15.8681 6.65293V10.2399H20.6631V9.44283L17.766 6.55326H15.8681V6.65293ZM6.37827 14.3252C5.37933 14.3252 4.58014 15.1223 4.58014 16.1187C4.58014 17.1151 5.37933 17.9122 6.37827 17.9122C7.3772 17.9122 8.1764 17.1151 8.1764 16.1187C8.1764 15.1223 7.27731 14.3252 6.37827 14.3252ZM18.2655 17.9122C19.2644 17.9122 20.0636 17.1151 20.0636 16.1187C20.0636 15.1223 19.2644 14.3252 18.2655 14.3252C17.2666 14.3252 16.4676 15.1223 16.4676 16.1187C16.4676 17.1151 17.2666 17.9122 18.2655 17.9122Z" fill="#F4F4F4"/>
</svg>
