<svg width="36" height="39" viewBox="0 0 36 39" fill="none" xmlns="http://www.w3.org/2000/svg">
<g filter="url(#filter0_d_1_802)">
<path d="M31.0769 30.2921C22.0699 30.2921 13.1608 30.2921 4.15384 30.2921C4.83915 24.5602 6.993 19.834 12.0839 16.8172C13.7482 15.8116 13.7482 15.6105 12.3776 14.3032C10.4196 12.2921 9.14684 9.87866 9.93006 6.96246C10.8112 3.54346 12.7692 0.928908 16.3916 0.526673C19.6224 0.124438 22.5594 0.928909 24.4196 4.04623C26.6713 7.86746 26.0839 11.4876 22.8531 14.4038C21.6783 15.4094 21.7762 15.9122 23.1468 16.7167C28.1399 19.7334 30.4895 24.4597 31.0769 30.2921Z" fill="#FCFCFC"/>
</g>
<defs>
<filter id="filter0_d_1_802" x="0.153839" y="0.430725" width="34.9231" height="37.8614" filterUnits="userSpaceOnUse" color-interpolation-filters="sRGB">
<feFlood flood-opacity="0" result="BackgroundImageFix"/>
<feColorMatrix in="SourceAlpha" type="matrix" values="0 0 0 0 0 0 0 0 0 0 0 0 0 0 0 0 0 0 127 0" result="hardAlpha"/>
<feOffset dy="4"/>
<feGaussianBlur stdDeviation="2"/>
<feComposite in2="hardAlpha" operator="out"/>
<feColorMatrix type="matrix" values="0 0 0 0 0 0 0 0 0 0 0 0 0 0 0 0 0 0 0.25 0"/>
<feBlend mode="normal" in2="BackgroundImageFix" result="effect1_dropShadow_1_802"/>
<feBlend mode="normal" in="SourceGraphic" in2="effect1_dropShadow_1_802" result="shape"/>
</filter>
</defs>
</svg>
