<svg width="37" height="57" viewBox="0 0 37 57" fill="none" xmlns="http://www.w3.org/2000/svg">
<g id="Group">
<path id="Vector" d="M23.0097 27.0754C22.6789 27.0231 22.7573 26.8404 22.8443 26.6576C23.0881 26.1353 23.297 25.6043 23.4014 25.0385C23.6364 23.8112 23.3926 22.7145 22.557 21.7657C21.6779 20.756 20.5376 20.0944 19.4147 19.4155C17.4737 18.2578 15.6806 16.9173 14.2182 15.1765C12.0943 12.6522 11.8594 10.1714 13.4784 7.30765C14.1486 6.11515 14.9929 5.04451 15.8198 3.96516C16.5249 3.03379 17.2386 2.10243 17.7957 1.0666C17.9176 0.831582 18.0395 0.553036 18.379 0.735829C18.6488 0.883804 18.64 1.12752 18.5182 1.35384C17.7261 2.82488 18.3876 3.90423 19.4409 4.88783C20.5463 5.92365 21.8433 6.69834 23.0967 7.51655C24.4198 8.37829 25.7777 9.1878 26.9615 10.241C29.6338 12.5999 30.304 15.3157 29.0244 18.6408C28.1714 20.8517 26.7874 22.7406 25.3076 24.5685C24.7244 25.291 24.1065 25.996 23.5059 26.7011C23.3666 26.8665 23.2186 27.0231 23.0097 27.0754Z" fill="#265796"/>
<path id="Vector_2" d="M18.1337 34.5437C18.2382 32.8638 17.2198 31.9063 16.0621 31.0445C15.2177 30.4178 14.3038 29.8956 13.3899 29.382C12.5107 28.8859 11.675 28.3375 10.9526 27.6324C9.41189 26.144 9.14211 24.5337 10.1344 22.6361C10.4391 22.0442 10.8133 21.4871 11.1789 20.93C11.7708 20.0334 12.4497 19.1978 12.8936 18.2055C12.9459 18.0837 12.9807 17.9096 13.1722 17.9183C13.3463 17.927 13.3985 18.0576 13.4159 18.2142C13.59 19.4851 14.3995 20.3207 15.4005 20.9735C16.5408 21.7134 17.7507 22.3401 18.8997 23.0626C20.2837 23.933 21.2848 25.1081 21.5546 26.7968C21.6939 27.6585 21.5806 28.5116 21.3456 29.3472C20.7624 31.3666 19.6048 33.0204 18.1337 34.5437Z" fill="#265796"/>
<path id="Vector_3" d="M8.99426 49.899C10.091 48.9415 10.5523 47.836 10.4044 46.4955C10.239 44.9462 9.1335 43.7798 7.76691 43.7624C5.46894 43.7363 3.17976 43.7449 0.881792 43.7275C0.498798 43.7275 0.333418 43.7885 0.342123 44.2237C0.359531 48.0972 0.359531 51.9793 0.342123 55.8528C0.342123 56.2445 0.437841 56.3925 0.855653 56.3838C1.89148 56.3577 2.92726 56.3838 3.96308 56.3664C5.32968 56.349 6.68763 56.3315 8.05422 56.288C9.92567 56.2184 11.1616 54.9911 11.2487 53.1196C11.3357 51.5267 10.5436 50.4909 8.99426 49.899ZM3.22323 46.3737C3.20582 45.9646 3.37987 45.9037 3.72805 45.9124C4.75517 45.9559 5.78231 45.9646 6.80073 46.0168C7.50579 46.0516 7.9933 46.748 7.95849 47.6271C7.93237 48.367 7.558 48.7413 6.78331 48.7674C6.73978 48.7674 6.68762 48.7674 6.6354 48.7674H5.27746C4.75519 48.7674 4.22428 48.75 3.70201 48.7761C3.33643 48.7935 3.18839 48.6978 3.2058 48.3061C3.24933 47.6619 3.24934 47.0091 3.22323 46.3737ZM7.28823 54.0945C6.06961 54.1032 4.85093 54.0771 3.63231 54.0858C3.31895 54.0858 3.19712 53.99 3.23194 53.6767C3.24935 53.5113 3.22324 53.3459 3.23194 53.1718C3.27546 52.5103 2.93602 51.6137 3.37124 51.2569C3.78035 50.9174 4.65077 51.1176 5.31231 51.0915C5.40806 51.0915 5.50377 51.0915 5.59952 51.0915V51.0654C6.1479 51.0654 6.69629 51.0567 7.24466 51.0654C8.08029 51.0828 8.52421 51.5876 8.54161 52.519C8.55902 53.5113 8.11515 54.0858 7.28823 54.0945Z" fill="#265796"/>
<path id="Vector_4" d="M21.6333 49.8982C22.7214 48.9407 23.1914 47.8353 23.0434 46.4948C22.8781 44.9454 21.7726 43.779 20.406 43.7616C18.108 43.7355 15.8187 43.7529 13.5208 43.7181C13.0507 43.7094 12.9724 43.8661 12.9811 44.2926C12.9985 48.1225 12.9985 51.9438 12.9811 55.7737C12.9811 56.2263 13.0769 56.4004 13.5643 56.3743C14.574 56.3308 15.5837 56.3656 16.6022 56.3569C17.9687 56.3395 19.3266 56.3221 20.6932 56.2786C22.5646 56.2089 23.8007 54.9816 23.8965 53.1102C23.9661 51.526 23.1827 50.4901 21.6333 49.8982ZM15.8536 46.6602C15.7578 45.9899 16.0364 45.8594 16.6457 45.9116C17.551 45.99 18.4562 45.9725 19.3615 46.0074C20.1275 46.0422 20.6323 46.7037 20.5975 47.6177C20.5713 48.3837 20.1884 48.7406 19.3615 48.7667C19.318 48.7667 19.2657 48.7667 19.2222 48.7667H17.934V48.7144C17.2724 48.7144 16.3759 48.9756 16.0016 48.6448C15.5664 48.2531 15.9493 47.3391 15.8536 46.6602ZM19.9708 54.0938C19.6574 54.1112 19.3528 54.0938 19.0394 54.0938H18.1777V54.0851C17.6728 54.0851 17.1679 54.0502 16.6718 54.0938C16.0537 54.1547 15.7491 53.998 15.8449 53.3017C15.9406 52.6053 15.549 51.6652 16.0103 51.2648C16.4281 50.9079 17.3333 51.1256 18.021 51.0994C18.6651 51.082 19.3092 51.0646 19.9533 51.082C20.7193 51.0995 21.1546 51.6565 21.1633 52.5531C21.1807 53.4932 20.7542 54.0589 19.9708 54.0938Z" fill="#265796"/>
<path id="Vector_5" d="M34.5943 50.0464C34.5073 50.0116 34.4376 49.9507 34.3593 49.9071C35.5605 48.4274 35.8043 47.8181 35.6824 46.5472C35.5431 44.9979 34.4464 43.7879 33.0885 43.7705C30.7731 43.7357 28.4489 43.7618 26.1336 43.727C25.7245 43.7183 25.6113 43.8402 25.6113 44.2493C25.6287 48.1227 25.6287 51.9962 25.6113 55.8784C25.6113 56.3049 25.7593 56.3919 26.151 56.3832C27.1346 56.3571 28.1269 56.3832 29.1105 56.3658C30.6164 56.3484 32.1223 56.3049 33.6282 56.2788C34.3593 56.2701 34.9861 55.9915 35.4822 55.4693C37.0664 53.8328 36.9358 50.943 34.5943 50.0464ZM28.4838 46.7649C28.4142 46.0946 28.597 45.8335 29.3194 45.9118C30.1986 46.0076 31.0864 45.9727 31.9656 46.0075C32.749 46.0424 33.2451 46.6691 33.2277 47.5918C33.219 48.3926 32.8273 48.7494 31.9395 48.7669C31.4607 48.7756 30.9819 48.7669 30.39 48.7669C29.8504 48.6972 28.9713 49.0541 28.597 48.6276C28.2836 48.2533 28.5535 47.4003 28.4838 46.7649ZM32.6533 54.094C32.3399 54.1114 32.0352 54.094 31.7218 54.094H30.7905V54.0852C30.1725 54.0852 29.5458 54.0678 28.9278 54.094C28.5709 54.1114 28.4751 53.9721 28.4925 53.6413C28.5099 52.945 28.5099 52.2573 28.4925 51.561C28.4838 51.2476 28.597 51.1432 28.9016 51.1432C30.1638 51.1345 31.4346 51.0735 32.6967 51.0822C33.3931 51.0909 33.8109 51.7002 33.8109 52.5707C33.8109 53.4846 33.3844 54.0504 32.6533 54.094Z" fill="#265796"/>
<path id="Vector_6" d="M6.13965 37.3641C6.53135 36.6852 6.90563 36.0759 7.21899 35.4404C7.41048 35.0574 7.70646 35.1271 8.01112 35.1271C11.6931 35.1271 15.3751 35.1271 19.0571 35.1271C21.9034 35.1271 24.7497 35.1445 27.5961 35.1097C28.188 35.101 28.51 35.2837 28.745 35.806C28.98 36.3196 29.2934 36.807 29.6154 37.3728C21.7728 37.3641 13.9997 37.3641 6.13965 37.3641Z" fill="#265796"/>
<path id="Vector_7" d="M11.8584 38.0254C15.8885 38.0254 19.8577 38.0254 23.8879 38.0254C23.4526 39.2701 23.0174 40.48 22.5996 41.6899C22.4952 41.9859 22.295 42.0033 22.0425 42.0033C19.318 42.0033 16.5848 42.012 13.8604 42.0207C13.6253 42.0207 13.3991 42.0555 13.2859 41.7422C12.8246 40.5061 12.3458 39.2875 11.8584 38.0254Z" fill="#265796"/>
</g>
</svg>
