<svg width="12" height="13" viewBox="0 0 12 13" fill="none" xmlns="http://www.w3.org/2000/svg">
<path d="M4.48932 0.911343V1.71185H7.56474V0.911343C7.56474 0.511116 7.86234 0.11084 8.35837 0.11084C8.8544 0.11084 9.15201 0.411059 9.15201 0.911343V1.71185H10.3425C10.9377 1.71185 11.533 2.21208 11.533 2.91248V4.11311H0.818754V2.91248C0.818754 2.31214 1.31473 1.71185 2.00918 1.71185H3.19966V0.911343C3.19966 0.511116 3.49726 0.11084 3.99329 0.11084C4.0925 0.11084 4.48932 0.511116 4.48932 0.911343ZM0.62033 4.81358H11.3345V11.3173C11.3345 11.9176 10.8385 12.5179 10.1441 12.5179H1.71157C1.11633 12.5179 0.521088 12.0177 0.521088 11.3173V4.81358H0.62033ZM2.10842 7.51507C2.10842 7.71518 2.30679 7.91532 2.5052 7.91532H3.2989C3.49731 7.91532 3.69569 7.71518 3.69569 7.51507V6.71469C3.69569 6.51457 3.49731 6.31443 3.2989 6.31443H2.5052C2.30679 6.31443 2.10842 6.51457 2.10842 6.71469V7.51507ZM5.18377 7.51507C5.18377 7.71518 5.38221 7.91532 5.58062 7.91532H6.37426C6.57267 7.91532 6.7711 7.71518 6.7711 7.51507V6.71469C6.7711 6.51457 6.57267 6.31443 6.37426 6.31443H5.58062C5.38221 6.31443 5.18377 6.51457 5.18377 6.71469V7.51507ZM8.65598 6.31443C8.45757 6.31443 8.25919 6.51457 8.25919 6.71469V7.51507C8.25919 7.71518 8.45757 7.91532 8.65598 7.91532H9.44961C9.64802 7.91532 9.84646 7.71518 9.84646 7.51507V6.71469C9.84646 6.51457 9.64802 6.31443 9.44961 6.31443H8.65598ZM2.10842 10.5168C2.10842 10.7169 2.30679 10.917 2.5052 10.917H3.2989C3.49731 10.917 3.69569 10.7169 3.69569 10.5168V9.71639C3.69569 9.51628 3.49731 9.31614 3.2989 9.31614H2.5052C2.30679 9.31614 2.10842 9.51628 2.10842 9.71639V10.5168ZM5.58062 9.41617C5.38221 9.41617 5.18377 9.61631 5.18377 9.81642V10.6168C5.18377 10.8169 5.38221 11.0171 5.58062 11.0171H6.37426C6.57267 11.0171 6.7711 10.8169 6.7711 10.6168V9.81642C6.7711 9.61631 6.57267 9.41617 6.37426 9.41617H5.58062ZM8.25919 10.5168C8.25919 10.7169 8.45757 10.917 8.65598 10.917H9.44961C9.64802 10.917 9.84646 10.7169 9.84646 10.5168V9.71639C9.84646 9.51628 9.64802 9.31614 9.44961 9.31614H8.65598C8.45757 9.31614 8.25919 9.51628 8.25919 9.71639V10.5168Z" fill="white"/>
</svg>
