<svg width="33" height="31" viewBox="0 0 33 31" fill="none" xmlns="http://www.w3.org/2000/svg">
<path d="M18.5647 23.5941C18.4649 23.6942 18.4649 23.6943 18.3651 23.7943H18.5647C19.0635 23.7943 19.4624 23.3941 19.4624 22.8938V22.5936L18.5647 23.5941ZM18.5647 20.9927H16.6692C16.1704 20.9927 15.7713 21.3929 15.7713 21.8932V22.7937C15.7713 23.294 16.1704 23.6943 16.6692 23.6943H17.2678C17.3675 23.3941 17.567 22.9939 17.7666 22.7937L19.263 21.2929C19.1632 21.1928 18.864 20.9927 18.5647 20.9927ZM13.8759 20.9927H11.9804C11.4816 20.9927 11.0827 21.3929 11.0827 21.8932V22.7937C11.0827 23.294 11.4816 23.6943 11.9804 23.6943H13.8759C14.3747 23.6943 14.7737 23.294 14.7737 22.7937V21.8932C14.8735 21.3929 14.3747 20.9927 13.8759 20.9927ZM9.18719 20.9927H7.29172C6.79291 20.9927 6.39385 21.3929 6.39385 21.8932V22.7937C6.39385 23.294 6.79291 23.6943 7.29172 23.6943H9.18719C9.68599 23.6943 10.0851 23.294 10.0851 22.7937V21.8932C10.0851 21.3929 9.68599 20.9927 9.18719 20.9927ZM23.3531 17.1906H21.4576C20.9588 17.1906 20.5599 17.5907 20.5599 18.091V18.9915C20.5599 19.2917 20.6596 19.5919 20.8591 19.692L21.8567 18.5913C22.2557 18.191 22.8543 17.8909 23.4528 17.8909C23.7521 17.8909 24.0515 17.9909 24.251 18.091V17.991C24.251 17.5907 23.8519 17.1906 23.3531 17.1906ZM22.5551 19.3918L21.9564 19.9921H23.3531C23.7522 19.9921 24.1512 19.692 24.251 19.2917C24.0515 19.0916 23.7521 18.9915 23.4528 18.9915C23.1536 19.0916 22.8544 19.1917 22.5551 19.3918ZM18.5647 17.1906H16.6692C16.1704 17.1906 15.7713 17.5907 15.7713 18.091V18.9915C15.7713 19.4918 16.1704 19.8921 16.6692 19.8921H18.5647C19.0635 19.8921 19.4624 19.4918 19.4624 18.9915V18.091C19.5622 17.5907 19.1632 17.1906 18.5647 17.1906ZM9.18719 17.1906H7.29172C6.79291 17.1906 6.39385 17.5907 6.39385 18.091V18.9915C6.39385 19.4918 6.79291 19.8921 7.29172 19.8921H9.18719C9.68599 19.8921 10.0851 19.4918 10.0851 18.9915V18.091C10.0851 17.5907 9.68599 17.1906 9.18719 17.1906ZM13.8759 17.1906H11.9804C11.4816 17.1906 11.0827 17.5907 11.0827 18.091V18.9915C11.0827 19.4918 11.4816 19.8921 11.9804 19.8921H13.8759C14.3747 19.8921 14.7737 19.4918 14.7737 18.9915V18.091C14.8735 17.5907 14.3747 17.1906 13.8759 17.1906ZM23.3531 13.3884H21.4576C20.9588 13.3884 20.5599 13.7886 20.5599 14.2889V15.1894C20.5599 15.6897 20.9588 16.0899 21.4576 16.0899H23.3531C23.8519 16.0899 24.251 15.6897 24.251 15.1894V14.2889C24.251 13.8887 23.8519 13.3884 23.3531 13.3884ZM18.5647 13.3884H16.6692C16.1704 13.3884 15.7713 13.7886 15.7713 14.2889V15.1894C15.7713 15.6897 16.1704 16.0899 16.6692 16.0899H18.5647C19.0635 16.0899 19.4624 15.6897 19.4624 15.1894V14.2889C19.5622 13.8887 19.1632 13.3884 18.5647 13.3884ZM13.8759 13.3884H11.9804C11.4816 13.3884 11.0827 13.7886 11.0827 14.2889V15.1894C11.0827 15.6897 11.4816 16.0899 11.9804 16.0899H13.8759C14.3747 16.0899 14.7737 15.6897 14.7737 15.1894V14.2889C14.8735 13.8887 14.3747 13.3884 13.8759 13.3884ZM15.7713 2.08188C15.2725 2.08188 14.8735 2.48213 14.8735 2.98242V5.78406C14.8735 6.28434 15.2725 6.6846 15.7713 6.6846C16.2701 6.6846 16.6692 6.28434 16.6692 5.78406V2.98242C16.6692 2.48213 16.2701 2.08188 15.7713 2.08188ZM22.3555 2.08188C21.8567 2.08188 21.4576 2.48213 21.4576 2.98242V5.78406C21.4576 6.28434 21.8567 6.6846 22.3555 6.6846C22.8543 6.6846 23.2534 6.28434 23.2534 5.78406V2.98242C23.3531 2.48213 22.8543 2.08188 22.3555 2.08188ZM9.18719 2.08188C8.68839 2.08188 8.28932 2.48213 8.28932 2.98242V5.78406C8.28932 6.28434 8.68839 6.6846 9.18719 6.6846C9.68599 6.6846 10.0851 6.28434 10.0851 5.78406V2.98242C10.0851 2.48213 9.68599 2.08188 9.18719 2.08188ZM23.3531 17.1906H21.4576C20.9588 17.1906 20.5599 17.5907 20.5599 18.091V18.9915C20.5599 19.2917 20.6596 19.5919 20.8591 19.692L21.8567 18.5913C22.2557 18.191 22.8543 17.8909 23.4528 17.8909C23.7521 17.8909 24.0515 17.9909 24.251 18.091V17.991C24.251 17.5907 23.8519 17.1906 23.3531 17.1906ZM22.5551 19.3918L21.9564 19.9921H23.3531C23.7522 19.9921 24.1512 19.692 24.251 19.2917C24.0515 19.0916 23.7521 18.9915 23.4528 18.9915C23.1536 19.0916 22.8544 19.1917 22.5551 19.3918ZM23.3531 13.3884H21.4576C20.9588 13.3884 20.5599 13.7886 20.5599 14.2889V15.1894C20.5599 15.6897 20.9588 16.0899 21.4576 16.0899H23.3531C23.8519 16.0899 24.251 15.6897 24.251 15.1894V14.2889C24.251 13.8887 23.8519 13.3884 23.3531 13.3884ZM18.5647 17.1906H16.6692C16.1704 17.1906 15.7713 17.5907 15.7713 18.091V18.9915C15.7713 19.4918 16.1704 19.8921 16.6692 19.8921H18.5647C19.0635 19.8921 19.4624 19.4918 19.4624 18.9915V18.091C19.5622 17.5907 19.1632 17.1906 18.5647 17.1906ZM18.5647 13.3884H16.6692C16.1704 13.3884 15.7713 13.7886 15.7713 14.2889V15.1894C15.7713 15.6897 16.1704 16.0899 16.6692 16.0899H18.5647C19.0635 16.0899 19.4624 15.6897 19.4624 15.1894V14.2889C19.5622 13.8887 19.1632 13.3884 18.5647 13.3884ZM18.5647 23.5941C18.4649 23.6942 18.4649 23.6943 18.3651 23.7943H18.5647C19.0635 23.7943 19.4624 23.3941 19.4624 22.8938V22.5936L18.5647 23.5941ZM18.5647 20.9927H16.6692C16.1704 20.9927 15.7713 21.3929 15.7713 21.8932V22.7937C15.7713 23.294 16.1704 23.6943 16.6692 23.6943H17.2678C17.3675 23.3941 17.567 22.9939 17.7666 22.7937L19.263 21.2929C19.1632 21.1928 18.864 20.9927 18.5647 20.9927ZM13.8759 20.9927H11.9804C11.4816 20.9927 11.0827 21.3929 11.0827 21.8932V22.7937C11.0827 23.294 11.4816 23.6943 11.9804 23.6943H13.8759C14.3747 23.6943 14.7737 23.294 14.7737 22.7937V21.8932C14.8735 21.3929 14.3747 20.9927 13.8759 20.9927ZM13.8759 17.1906H11.9804C11.4816 17.1906 11.0827 17.5907 11.0827 18.091V18.9915C11.0827 19.4918 11.4816 19.8921 11.9804 19.8921H13.8759C14.3747 19.8921 14.7737 19.4918 14.7737 18.9915V18.091C14.8735 17.5907 14.3747 17.1906 13.8759 17.1906ZM13.8759 13.3884H11.9804C11.4816 13.3884 11.0827 13.7886 11.0827 14.2889V15.1894C11.0827 15.6897 11.4816 16.0899 11.9804 16.0899H13.8759C14.3747 16.0899 14.7737 15.6897 14.7737 15.1894V14.2889C14.8735 13.8887 14.3747 13.3884 13.8759 13.3884ZM9.18719 20.9927H7.29172C6.79291 20.9927 6.39385 21.3929 6.39385 21.8932V22.7937C6.39385 23.294 6.79291 23.6943 7.29172 23.6943H9.18719C9.68599 23.6943 10.0851 23.294 10.0851 22.7937V21.8932C10.0851 21.3929 9.68599 20.9927 9.18719 20.9927ZM9.18719 17.1906H7.29172C6.79291 17.1906 6.39385 17.5907 6.39385 18.091V18.9915C6.39385 19.4918 6.79291 19.8921 7.29172 19.8921H9.18719C9.68599 19.8921 10.0851 19.4918 10.0851 18.9915V18.091C10.0851 17.5907 9.68599 17.1906 9.18719 17.1906ZM9.18719 17.1906H7.29172C6.79291 17.1906 6.39385 17.5907 6.39385 18.091V18.9915C6.39385 19.4918 6.79291 19.8921 7.29172 19.8921H9.18719C9.68599 19.8921 10.0851 19.4918 10.0851 18.9915V18.091C10.0851 17.5907 9.68599 17.1906 9.18719 17.1906ZM9.18719 20.9927H7.29172C6.79291 20.9927 6.39385 21.3929 6.39385 21.8932V22.7937C6.39385 23.294 6.79291 23.6943 7.29172 23.6943H9.18719C9.68599 23.6943 10.0851 23.294 10.0851 22.7937V21.8932C10.0851 21.3929 9.68599 20.9927 9.18719 20.9927ZM13.8759 13.3884H11.9804C11.4816 13.3884 11.0827 13.7886 11.0827 14.2889V15.1894C11.0827 15.6897 11.4816 16.0899 11.9804 16.0899H13.8759C14.3747 16.0899 14.7737 15.6897 14.7737 15.1894V14.2889C14.8735 13.8887 14.3747 13.3884 13.8759 13.3884ZM13.8759 17.1906H11.9804C11.4816 17.1906 11.0827 17.5907 11.0827 18.091V18.9915C11.0827 19.4918 11.4816 19.8921 11.9804 19.8921H13.8759C14.3747 19.8921 14.7737 19.4918 14.7737 18.9915V18.091C14.8735 17.5907 14.3747 17.1906 13.8759 17.1906ZM13.8759 20.9927H11.9804C11.4816 20.9927 11.0827 21.3929 11.0827 21.8932V22.7937C11.0827 23.294 11.4816 23.6943 11.9804 23.6943H13.8759C14.3747 23.6943 14.7737 23.294 14.7737 22.7937V21.8932C14.8735 21.3929 14.3747 20.9927 13.8759 20.9927ZM18.5647 23.5941C18.4649 23.6942 18.4649 23.6943 18.3651 23.7943H18.5647C19.0635 23.7943 19.4624 23.3941 19.4624 22.8938V22.5936L18.5647 23.5941ZM18.5647 20.9927H16.6692C16.1704 20.9927 15.7713 21.3929 15.7713 21.8932V22.7937C15.7713 23.294 16.1704 23.6943 16.6692 23.6943H17.2678C17.3675 23.3941 17.567 22.9939 17.7666 22.7937L19.263 21.2929C19.1632 21.1928 18.864 20.9927 18.5647 20.9927ZM18.5647 13.3884H16.6692C16.1704 13.3884 15.7713 13.7886 15.7713 14.2889V15.1894C15.7713 15.6897 16.1704 16.0899 16.6692 16.0899H18.5647C19.0635 16.0899 19.4624 15.6897 19.4624 15.1894V14.2889C19.5622 13.8887 19.1632 13.3884 18.5647 13.3884ZM18.5647 17.1906H16.6692C16.1704 17.1906 15.7713 17.5907 15.7713 18.091V18.9915C15.7713 19.4918 16.1704 19.8921 16.6692 19.8921H18.5647C19.0635 19.8921 19.4624 19.4918 19.4624 18.9915V18.091C19.5622 17.5907 19.1632 17.1906 18.5647 17.1906ZM23.3531 13.3884H21.4576C20.9588 13.3884 20.5599 13.7886 20.5599 14.2889V15.1894C20.5599 15.6897 20.9588 16.0899 21.4576 16.0899H23.3531C23.8519 16.0899 24.251 15.6897 24.251 15.1894V14.2889C24.251 13.8887 23.8519 13.3884 23.3531 13.3884ZM23.3531 17.1906H21.4576C20.9588 17.1906 20.5599 17.5907 20.5599 18.091V18.9915C20.5599 19.2917 20.6596 19.5919 20.8591 19.692L21.8567 18.5913C22.2557 18.191 22.8543 17.8909 23.4528 17.8909C23.7521 17.8909 24.0515 17.9909 24.251 18.091V17.991C24.251 17.5907 23.8519 17.1906 23.3531 17.1906ZM22.5551 19.3918L21.9564 19.9921H23.3531C23.7522 19.9921 24.1512 19.692 24.251 19.2917C24.0515 19.0916 23.7521 18.9915 23.4528 18.9915C23.1536 19.0916 22.8544 19.1917 22.5551 19.3918ZM26.1465 24.7949C26.1465 25.1951 26.0466 25.4953 25.8471 25.7954H27.8423C27.9421 25.4953 27.9421 25.095 27.9421 24.7949V23.194H26.0467V24.7949H26.1465ZM24.251 3.98299V5.88409C24.251 6.88466 23.4529 7.7852 22.3555 7.7852C21.3579 7.7852 20.46 6.98472 20.46 5.88409V3.98299H17.6668V5.88409C17.6668 6.88466 16.8687 7.7852 15.7713 7.7852C14.674 7.7852 13.8759 6.98472 13.8759 5.88409V3.98299H11.0827V5.88409C11.0827 6.88466 10.2846 7.7852 9.18719 7.7852C8.18958 7.7852 7.29172 6.98472 7.29172 5.88409V3.98299H6.39385C4.29888 3.98299 2.60303 5.684 2.60303 7.7852V24.7949C2.60303 26.8961 4.29888 28.597 6.39385 28.597H20.2606L18.4648 26.696H6.39385C5.39624 26.696 4.49838 25.8955 4.49838 24.7949V11.5873H26.2462V22.2935H28.1417V7.7852C28.0419 5.684 26.3459 3.98299 24.251 3.98299ZM23.2534 26.696H19.8615L21.6572 28.597H24.3507C24.4505 28.597 24.65 28.597 24.7498 28.597C24.7498 28.2968 24.65 28.0968 24.4505 27.7966L23.2534 26.696ZM9.18719 17.1906H7.29172C6.79291 17.1906 6.39385 17.5907 6.39385 18.091V18.9915C6.39385 19.4918 6.79291 19.8921 7.29172 19.8921H9.18719C9.68599 19.8921 10.0851 19.4918 10.0851 18.9915V18.091C10.0851 17.5907 9.68599 17.1906 9.18719 17.1906ZM9.18719 20.9927H7.29172C6.79291 20.9927 6.39385 21.3929 6.39385 21.8932V22.7937C6.39385 23.294 6.79291 23.6943 7.29172 23.6943H9.18719C9.68599 23.6943 10.0851 23.294 10.0851 22.7937V21.8932C10.0851 21.3929 9.68599 20.9927 9.18719 20.9927ZM13.8759 13.3884H11.9804C11.4816 13.3884 11.0827 13.7886 11.0827 14.2889V15.1894C11.0827 15.6897 11.4816 16.0899 11.9804 16.0899H13.8759C14.3747 16.0899 14.7737 15.6897 14.7737 15.1894V14.2889C14.8735 13.8887 14.3747 13.3884 13.8759 13.3884ZM13.8759 17.1906H11.9804C11.4816 17.1906 11.0827 17.5907 11.0827 18.091V18.9915C11.0827 19.4918 11.4816 19.8921 11.9804 19.8921H13.8759C14.3747 19.8921 14.7737 19.4918 14.7737 18.9915V18.091C14.8735 17.5907 14.3747 17.1906 13.8759 17.1906ZM13.8759 20.9927H11.9804C11.4816 20.9927 11.0827 21.3929 11.0827 21.8932V22.7937C11.0827 23.294 11.4816 23.6943 11.9804 23.6943H13.8759C14.3747 23.6943 14.7737 23.294 14.7737 22.7937V21.8932C14.8735 21.3929 14.3747 20.9927 13.8759 20.9927ZM18.5647 23.5941C18.4649 23.6942 18.4649 23.6943 18.3651 23.7943H18.5647C19.0635 23.7943 19.4624 23.3941 19.4624 22.8938V22.5936L18.5647 23.5941ZM18.5647 20.9927H16.6692C16.1704 20.9927 15.7713 21.3929 15.7713 21.8932V22.7937C15.7713 23.294 16.1704 23.6943 16.6692 23.6943H17.2678C17.3675 23.3941 17.567 22.9939 17.7666 22.7937L19.263 21.2929C19.1632 21.1928 18.864 20.9927 18.5647 20.9927ZM18.5647 13.3884H16.6692C16.1704 13.3884 15.7713 13.7886 15.7713 14.2889V15.1894C15.7713 15.6897 16.1704 16.0899 16.6692 16.0899H18.5647C19.0635 16.0899 19.4624 15.6897 19.4624 15.1894V14.2889C19.5622 13.8887 19.1632 13.3884 18.5647 13.3884ZM18.5647 17.1906H16.6692C16.1704 17.1906 15.7713 17.5907 15.7713 18.091V18.9915C15.7713 19.4918 16.1704 19.8921 16.6692 19.8921H18.5647C19.0635 19.8921 19.4624 19.4918 19.4624 18.9915V18.091C19.5622 17.5907 19.1632 17.1906 18.5647 17.1906ZM23.3531 13.3884H21.4576C20.9588 13.3884 20.5599 13.7886 20.5599 14.2889V15.1894C20.5599 15.6897 20.9588 16.0899 21.4576 16.0899H23.3531C23.8519 16.0899 24.251 15.6897 24.251 15.1894V14.2889C24.251 13.8887 23.8519 13.3884 23.3531 13.3884ZM23.3531 17.1906H21.4576C20.9588 17.1906 20.5599 17.5907 20.5599 18.091V18.9915C20.5599 19.2917 20.6596 19.5919 20.8591 19.692L21.8567 18.5913C22.2557 18.191 22.8543 17.8909 23.4528 17.8909C23.7521 17.8909 24.0515 17.9909 24.251 18.091V17.991C24.251 17.5907 23.8519 17.1906 23.3531 17.1906ZM22.5551 19.3918L21.9564 19.9921H23.3531C23.7522 19.9921 24.1512 19.692 24.251 19.2917C24.0515 19.0916 23.7521 18.9915 23.4528 18.9915C23.1536 19.0916 22.8544 19.1917 22.5551 19.3918ZM24.251 27.7966L23.1536 26.696H19.7618L21.5575 28.597H24.251C24.3507 28.597 24.5503 28.597 24.65 28.597C24.65 28.2968 24.4505 27.9967 24.251 27.7966ZM23.3531 17.1906H21.4576C20.9588 17.1906 20.5599 17.5907 20.5599 18.091V18.9915C20.5599 19.2917 20.6596 19.5919 20.8591 19.692L21.8567 18.5913C22.2557 18.191 22.8543 17.8909 23.4528 17.8909C23.7521 17.8909 24.0515 17.9909 24.251 18.091V17.991C24.251 17.5907 23.8519 17.1906 23.3531 17.1906ZM22.5551 19.3918L21.9564 19.9921H23.3531C23.7522 19.9921 24.1512 19.692 24.251 19.2917C24.0515 19.0916 23.7521 18.9915 23.4528 18.9915C23.1536 19.0916 22.8544 19.1917 22.5551 19.3918ZM23.3531 13.3884H21.4576C20.9588 13.3884 20.5599 13.7886 20.5599 14.2889V15.1894C20.5599 15.6897 20.9588 16.0899 21.4576 16.0899H23.3531C23.8519 16.0899 24.251 15.6897 24.251 15.1894V14.2889C24.251 13.8887 23.8519 13.3884 23.3531 13.3884ZM18.5647 17.1906H16.6692C16.1704 17.1906 15.7713 17.5907 15.7713 18.091V18.9915C15.7713 19.4918 16.1704 19.8921 16.6692 19.8921H18.5647C19.0635 19.8921 19.4624 19.4918 19.4624 18.9915V18.091C19.5622 17.5907 19.1632 17.1906 18.5647 17.1906ZM18.5647 13.3884H16.6692C16.1704 13.3884 15.7713 13.7886 15.7713 14.2889V15.1894C15.7713 15.6897 16.1704 16.0899 16.6692 16.0899H18.5647C19.0635 16.0899 19.4624 15.6897 19.4624 15.1894V14.2889C19.5622 13.8887 19.1632 13.3884 18.5647 13.3884ZM18.5647 23.5941C18.4649 23.6942 18.4649 23.6943 18.3651 23.7943H18.5647C19.0635 23.7943 19.4624 23.3941 19.4624 22.8938V22.5936L18.5647 23.5941ZM18.5647 20.9927H16.6692C16.1704 20.9927 15.7713 21.3929 15.7713 21.8932V22.7937C15.7713 23.294 16.1704 23.6943 16.6692 23.6943H17.2678C17.3675 23.3941 17.567 22.9939 17.7666 22.7937L19.263 21.2929C19.1632 21.1928 18.864 20.9927 18.5647 20.9927ZM13.8759 20.9927H11.9804C11.4816 20.9927 11.0827 21.3929 11.0827 21.8932V22.7937C11.0827 23.294 11.4816 23.6943 11.9804 23.6943H13.8759C14.3747 23.6943 14.7737 23.294 14.7737 22.7937V21.8932C14.8735 21.3929 14.3747 20.9927 13.8759 20.9927ZM13.8759 17.1906H11.9804C11.4816 17.1906 11.0827 17.5907 11.0827 18.091V18.9915C11.0827 19.4918 11.4816 19.8921 11.9804 19.8921H13.8759C14.3747 19.8921 14.7737 19.4918 14.7737 18.9915V18.091C14.8735 17.5907 14.3747 17.1906 13.8759 17.1906ZM13.8759 13.3884H11.9804C11.4816 13.3884 11.0827 13.7886 11.0827 14.2889V15.1894C11.0827 15.6897 11.4816 16.0899 11.9804 16.0899H13.8759C14.3747 16.0899 14.7737 15.6897 14.7737 15.1894V14.2889C14.8735 13.8887 14.3747 13.3884 13.8759 13.3884ZM9.18719 20.9927H7.29172C6.79291 20.9927 6.39385 21.3929 6.39385 21.8932V22.7937C6.39385 23.294 6.79291 23.6943 7.29172 23.6943H9.18719C9.68599 23.6943 10.0851 23.294 10.0851 22.7937V21.8932C10.0851 21.3929 9.68599 20.9927 9.18719 20.9927ZM9.18719 17.1906H7.29172C6.79291 17.1906 6.39385 17.5907 6.39385 18.091V18.9915C6.39385 19.4918 6.79291 19.8921 7.29172 19.8921H9.18719C9.68599 19.8921 10.0851 19.4918 10.0851 18.9915V18.091C10.0851 17.5907 9.68599 17.1906 9.18719 17.1906Z" fill="#6D6D6D"/>
<path d="M32.2318 24.4947C32.2318 25.1951 31.7331 25.7954 31.0347 25.7954H22.4553L23.3531 26.696L24.4505 27.7966C24.65 27.9967 24.7498 28.2968 24.7498 28.597C24.7498 28.9972 24.65 29.3974 24.4505 29.5975L24.3507 29.6977C24.251 29.7977 24.1513 29.7977 24.0515 29.8978H23.9517C23.8519 29.8978 23.7522 29.8978 23.7522 29.8978H23.6525H23.5527C23.453 29.8978 23.3531 29.8978 23.3531 29.8978H23.2534C23.1536 29.8978 23.0538 29.7977 22.9541 29.6977L22.8543 29.5975L21.8567 28.597L20.0611 26.696L18.8639 25.3952C18.6644 25.1951 18.4648 24.8949 18.4648 24.4947C18.4648 24.2945 18.5647 23.9944 18.6644 23.7943C18.6644 23.6942 18.7641 23.5941 18.8639 23.5941L19.8615 22.5935L22.2558 20.0921L22.8543 19.4918C23.0538 19.1916 23.4529 19.0916 23.7522 19.0916C24.0515 19.0916 24.3508 19.1917 24.5503 19.3918C24.5503 19.3918 24.5503 19.3917 24.6501 19.4918C25.1489 19.9921 25.1489 20.7926 24.6501 21.2929L22.7546 23.294H31.334C31.6332 23.194 32.2318 23.7943 32.2318 24.4947Z" fill="#631363"/>
<path d="M23.5529 29.9979C23.6526 29.9979 23.7523 29.9979 23.7523 29.9979C23.7523 29.8979 23.6526 29.9979 23.5529 29.9979ZM23.3533 29.9979C23.2535 29.9979 23.1538 29.9979 23.1538 29.9979C23.1538 29.8979 23.2535 29.9979 23.3533 29.9979Z" fill="#631363"/>
</svg>
