<svg width="33" height="33" viewBox="0 0 33 33" fill="none" xmlns="http://www.w3.org/2000/svg">
<path d="M7.59985 1.70007V4.90015C7.59985 5.50015 7.1 6.00012 6.5 6.00012C5.9 6.00012 5.3999 5.50015 5.3999 4.90015V1.70007C5.3999 1.10007 5.9 0.600098 6.5 0.600098C7.1 0.600098 7.59985 1.10007 7.59985 1.70007Z" fill="#6D6D6D"/>
<path d="M21.5 0.600098C20.9 0.600098 20.3999 1.10007 20.3999 1.70007V4.90015C20.3999 5.50015 20.9 6.00012 21.5 6.00012C22.1 6.00012 22.5999 5.50015 22.5999 4.90015V1.70007C22.4999 1.10007 22.1 0.600098 21.5 0.600098Z" fill="#6D6D6D"/>
<path d="M14 0.600098C13.4 0.600098 12.8999 1.10007 12.8999 1.70007V4.90015C12.8999 5.50015 13.4 6.00012 14 6.00012C14.6 6.00012 15.0999 5.50015 15.0999 4.90015V1.70007C15.0999 1.10007 14.6 0.600098 14 0.600098Z" fill="#6D6D6D"/>
<path d="M8.69995 13.4001H6.59985C5.99985 13.4001 5.5 13.9001 5.5 14.5001V15.6001C5.5 16.2001 5.99985 16.7001 6.59985 16.7001H8.69995C9.29995 16.7001 9.7998 16.2001 9.7998 15.6001V14.5001C9.6998 13.9001 9.29995 13.4001 8.69995 13.4001Z" fill="#6D6D6D"/>
<path d="M15.0999 13.4001H13C12.4 13.4001 11.8999 13.9001 11.8999 14.5001V15.6001C11.8999 16.2001 12.4 16.7001 13 16.7001H15.0999C15.6999 16.7001 16.2 16.2001 16.2 15.6001V14.5001C16.1 13.9001 15.6999 13.4001 15.0999 13.4001Z" fill="#6D6D6D"/>
<path d="M21.5 13.4001H19.3999C18.7999 13.4001 18.2998 13.9001 18.2998 14.5001V15.6001C18.2998 16.2001 18.7999 16.7001 19.3999 16.7001H21.5C22.1 16.7001 22.5999 16.2001 22.5999 15.6001V14.5001C22.4999 13.9001 22.1 13.4001 21.5 13.4001Z" fill="#6D6D6D"/>
<path d="M8.69995 17.7001H6.59985C5.99985 17.7001 5.5 18.2 5.5 18.8V19.9001C5.5 20.5001 5.99985 21.0001 6.59985 21.0001H8.69995C9.29995 21.0001 9.7998 20.5001 9.7998 19.9001V18.8C9.6998 18.2 9.29995 17.7001 8.69995 17.7001Z" fill="#6D6D6D"/>
<path d="M15.0999 17.7001H13C12.4 17.7001 11.8999 18.2 11.8999 18.8V19.9001C11.8999 20.5001 12.4 21.0001 13 21.0001H15.0999C15.6999 21.0001 16.2 20.5001 16.2 19.9001V18.8C16.1 18.2 15.6999 17.7001 15.0999 17.7001Z" fill="#6D6D6D"/>
<path d="M8.69995 21.9001H6.59985C5.99985 21.9001 5.5 22.4001 5.5 23.0001V24.1001C5.5 24.7001 5.99985 25.2001 6.59985 25.2001H8.69995C9.29995 25.2001 9.7998 24.7001 9.7998 24.1001V23.0001C9.6998 22.4001 9.29995 21.9001 8.69995 21.9001Z" fill="#6D6D6D"/>
<path d="M15.0999 21.9001H13C12.4 21.9001 11.8999 22.4001 11.8999 23.0001V24.1001C11.8999 24.7001 12.4 25.2001 13 25.2001H15.0999C15.6999 25.2001 16.2 24.7001 16.2 24.1001V23.0001C16.1 22.4001 15.6999 21.9001 15.0999 21.9001Z" fill="#6D6D6D"/>
<path d="M4.3999 27.3C3.1999 27.3 2.2998 26.3001 2.2998 25.2001V11.3H25.7998V16.7001C26.4998 16.8001 27.2999 17 27.8999 17.3V7.1001C27.8999 4.7001 25.9999 2.80005 23.5999 2.80005V4.90015C23.5999 6.10015 22.6 7.00012 21.5 7.00012C20.3 7.00012 19.3999 6.00015 19.3999 4.90015V2.80005H16.2V4.90015C16.2 6.10015 15.1999 7.00012 14.0999 7.00012C12.8999 7.00012 12 6.00015 12 4.90015V2.80005H8.7998V4.90015C8.7998 6.10015 7.79995 7.00012 6.69995 7.00012C5.49995 7.00012 4.59985 6.00015 4.59985 4.90015V2.80005C2.19985 2.80005 0.299805 4.7001 0.299805 7.1001V25.2001C0.299805 27.6001 2.19985 29.5001 4.59985 29.5001H17.5C17.1 28.8001 16.7999 28.1001 16.5999 27.4001H4.3999V27.3Z" fill="#6D6D6D"/>
<path d="M24.7 17.7001C20.6 17.7001 17.2 21.0001 17.2 25.2001C17.2 29.3001 20.5 32.7001 24.7 32.7001C28.8 32.7001 32.2 29.4001 32.2 25.2001C32.1 21.0001 28.8 17.7001 24.7 17.7001ZM24.7 30.5001C21.8 30.5001 19.3999 28.1001 19.3999 25.2001C19.3999 22.3001 21.8 19.9001 24.7 19.9001C27.6 19.9001 30 22.3001 30 25.2001C30 28.1001 27.6 30.5001 24.7 30.5001Z" fill="#631363"/>
<path d="M28.8999 25.1001C28.8999 25.7001 28.3998 26.2001 27.7998 26.2001H25.7V28.3C25.7 28.9 25.1999 29.4001 24.5999 29.4001C23.9999 29.4001 23.5 28.9 23.5 28.3V26.2001H21.3999C20.7999 26.2001 20.2998 25.7001 20.2998 25.1001C20.2998 24.5001 20.7999 24.0001 21.3999 24.0001H23.5V21.9001C23.5 21.3001 23.9999 20.8 24.5999 20.8C25.1999 20.8 25.7 21.3001 25.7 21.9001V24.0001H27.7998C28.4998 24.1001 28.8999 24.6001 28.8999 25.1001Z" fill="#631363"/>
</svg>
