<svg width="31" height="30" viewBox="0 0 31 30" fill="none" xmlns="http://www.w3.org/2000/svg">
<path d="M7.69101 1.19713V4.19884C7.69101 4.69913 7.29197 5.19941 6.6934 5.19941C6.09484 5.19941 5.6958 4.79918 5.6958 4.19884V1.19713C5.6958 0.696848 6.09484 0.196564 6.6934 0.196564C7.29197 0.196564 7.69101 0.596791 7.69101 1.19713Z" fill="#6D6D6D"/>
<path d="M20.4601 0.196564C19.9613 0.196564 19.4625 0.596791 19.4625 1.19713V4.19884C19.4625 4.69913 19.8616 5.19941 20.4601 5.19941C21.0587 5.19941 21.4577 4.79918 21.4577 4.19884V1.19713C21.4577 0.596791 21.0587 0.196564 20.4601 0.196564Z" fill="#6D6D6D"/>
<path d="M13.5768 0.196564C13.078 0.196564 12.5792 0.596791 12.5792 1.19713V4.19884C12.5792 4.69913 12.9783 5.19941 13.5768 5.19941C14.0756 5.19941 14.5744 4.79918 14.5744 4.19884V1.19713C14.5744 0.596791 14.1754 0.196564 13.5768 0.196564Z" fill="#6D6D6D"/>
<path d="M8.68861 12.003H6.6934C6.1946 12.003 5.6958 12.4033 5.6958 13.0036V14.0042C5.6958 14.5045 6.09484 15.0048 6.6934 15.0048H8.68861C9.18741 15.0048 9.68622 14.6045 9.68622 14.0042V13.0036C9.68622 12.4033 9.28717 12.003 8.68861 12.003Z" fill="#6D6D6D"/>
<path d="M14.5744 12.003H12.5791C12.0803 12.003 11.5815 12.4033 11.5815 13.0036V14.0042C11.5815 14.5045 11.9806 15.0048 12.5791 15.0048H14.5744C15.0732 15.0048 15.572 14.6045 15.572 14.0042V13.0036C15.572 12.4033 15.1729 12.003 14.5744 12.003Z" fill="#6D6D6D"/>
<path d="M20.4601 12.003H18.4649C17.9661 12.003 17.4673 12.4033 17.4673 13.0036V14.0042C17.4673 14.5045 17.8663 15.0048 18.4649 15.0048H20.4601C20.9589 15.0048 21.4577 14.6045 21.4577 14.0042V13.0036C21.4577 12.4033 21.0587 12.003 20.4601 12.003Z" fill="#6D6D6D"/>
<path d="M8.68861 15.9054H6.6934C6.1946 15.9054 5.6958 16.3056 5.6958 16.906V17.9066C5.6958 18.4068 6.09484 18.9071 6.6934 18.9071H8.68861C9.18741 18.9071 9.68622 18.5069 9.68622 17.9066V16.906C9.68622 16.4057 9.28717 15.9054 8.68861 15.9054Z" fill="#6D6D6D"/>
<path d="M14.5744 15.9054H12.5791C12.0803 15.9054 11.5815 16.3056 11.5815 16.906V17.9066C11.5815 18.4068 11.9806 18.9071 12.5791 18.9071H14.5744C15.0732 18.9071 15.572 18.5069 15.572 17.9066V16.906C15.572 16.4057 15.1729 15.9054 14.5744 15.9054Z" fill="#6D6D6D"/>
<path d="M8.68861 19.9077H6.6934C6.1946 19.9077 5.6958 20.3079 5.6958 20.9083V21.9088C5.6958 22.4091 6.09484 22.9094 6.6934 22.9094H8.68861C9.18741 22.9094 9.68622 22.5092 9.68622 21.9088V20.9083C9.68622 20.3079 9.28717 19.9077 8.68861 19.9077Z" fill="#6D6D6D"/>
<path d="M14.5744 19.9077H12.5791C12.0803 19.9077 11.5815 20.3079 11.5815 20.9083V21.9088C11.5815 22.4091 11.9806 22.9094 12.5791 22.9094H14.5744C15.0732 22.9094 15.572 22.5092 15.572 21.9088V20.9083C15.572 20.3079 15.1729 19.9077 14.5744 19.9077Z" fill="#6D6D6D"/>
<path d="M4.79816 24.8105C3.70079 24.8105 2.80295 23.91 2.80295 22.8094V10.002H24.4509V15.0049C25.1492 15.1049 25.7478 15.305 26.4461 15.5052V6.09991C26.4461 3.89865 24.6505 2.19766 22.5556 2.19766V4.1988C22.5556 5.29943 21.6577 6.19994 20.5603 6.19994C19.463 6.19994 18.5651 5.29943 18.5651 4.1988V2.19766H15.5723V4.1988C15.5723 5.29943 14.6745 6.19994 13.5771 6.19994C12.4798 6.19994 11.5819 5.29943 11.5819 4.1988V2.19766H8.5891V4.1988C8.5891 5.29943 7.69126 6.19994 6.59389 6.19994C5.49653 6.19994 4.59869 5.29943 4.59869 4.1988V2.19766C2.40396 2.19766 0.708008 3.99871 0.708008 6.09991V22.8094C0.708008 25.0106 2.50372 26.7116 4.59869 26.7116H16.4701C16.071 26.1113 15.8716 25.4109 15.6721 24.7105H4.79816V24.8105Z" fill="#6D6D6D"/>
<path d="M22.8545 15.9055C19.5624 16.2057 16.7692 18.9073 16.5697 22.2092C16.2704 26.4116 19.7619 30.0137 23.9518 29.6134C27.2439 29.3133 29.9375 26.6117 30.2368 23.3098C30.6358 19.1074 27.1442 15.6054 22.8545 15.9055ZM23.453 27.7123C20.6598 27.7123 18.3654 25.3109 18.5649 22.5093C18.6646 20.0079 20.7596 18.0067 23.2536 17.9067C26.0469 17.8066 28.4411 20.0079 28.4411 22.8095C28.3413 25.511 26.1466 27.7123 23.453 27.7123Z" fill="#631363"/>
<path d="M26.1465 21.3085L23.2534 25.3108C23.0539 25.611 22.6548 25.611 22.4553 25.3108L20.8591 23.5097C20.6596 23.3096 20.6596 23.0095 20.8591 22.8094L21.2582 22.4091C21.4577 22.209 21.8567 22.209 21.9565 22.4091L22.4553 23.0094C22.6548 23.3096 23.0539 23.2095 23.2534 23.0094L24.9493 20.3079C25.1488 20.0078 25.5479 20.0078 25.7474 20.2079L26.1465 20.6082C26.2462 20.8083 26.2462 21.1084 26.1465 21.3085Z" fill="#631363"/>
</svg>
