<svg width="13" height="12" viewBox="0 0 13 12" fill="none" xmlns="http://www.w3.org/2000/svg">
<path d="M3.87362 0.511824V1.71258C3.87362 1.91269 3.67518 2.11271 3.47677 2.11271C3.27836 2.11271 3.07992 1.91269 3.07992 1.71258V0.511824C3.07992 0.31171 3.27836 0.111572 3.47677 0.111572C3.67518 0.111572 3.87362 0.211653 3.87362 0.511824Z" fill="white"/>
<path d="M8.93309 0.111572C8.73468 0.111572 8.53624 0.31171 8.53624 0.511824V1.71258C8.53624 1.91269 8.73468 2.11271 8.93309 2.11271C9.1315 2.11271 9.32994 1.91269 9.32994 1.71258V0.511824C9.32994 0.211653 9.1315 0.111572 8.93309 0.111572Z" fill="white"/>
<path d="M6.25428 0.111572C6.05587 0.111572 5.85749 0.31171 5.85749 0.511824V1.71258C5.85749 1.91269 6.05587 2.11271 6.25428 2.11271C6.45269 2.11271 6.65113 1.91269 6.65113 1.71258V0.511824C6.55192 0.211653 6.45269 0.111572 6.25428 0.111572Z" fill="white"/>
<path d="M4.2704 4.81421H3.47677C3.27836 4.81421 3.07992 5.01423 3.07992 5.21423V5.61414C3.07992 5.81414 3.27836 6.01416 3.47677 6.01416H4.2704C4.46882 6.01416 4.66725 5.81414 4.66725 5.61414V5.21423C4.66725 4.91423 4.46882 4.81421 4.2704 4.81421Z" fill="white"/>
<path d="M6.55188 4.81421H5.75825C5.55984 4.81421 5.36146 5.01423 5.36146 5.21423V5.61414C5.36146 5.81414 5.55984 6.01416 5.75825 6.01416H6.55188C6.75029 6.01416 6.94873 5.81414 6.94873 5.61414V5.21423C6.94873 4.91423 6.8495 4.81421 6.55188 4.81421Z" fill="white"/>
<path d="M8.93327 4.81421H8.13964C7.94123 4.81421 7.74279 5.01423 7.74279 5.21423V5.61414C7.74279 5.81414 7.94123 6.01416 8.13964 6.01416H8.93327C9.13168 6.01416 9.33012 5.81414 9.33012 5.61414V5.21423C9.33012 4.91423 9.13168 4.81421 8.93327 4.81421Z" fill="white"/>
<path d="M4.2704 6.31519H3.47677C3.27836 6.31519 3.07992 6.51521 3.07992 6.71521V7.11511C3.07992 7.31511 3.27836 7.51514 3.47677 7.51514H4.2704C4.46882 7.51514 4.66725 7.31511 4.66725 7.11511V6.71521C4.66725 6.51521 4.46882 6.31519 4.2704 6.31519Z" fill="white"/>
<path d="M6.55188 6.31519H5.75825C5.55984 6.31519 5.36146 6.51521 5.36146 6.71521V7.11511C5.36146 7.31511 5.55984 7.51514 5.75825 7.51514H6.55188C6.75029 7.51514 6.94873 7.31511 6.94873 7.11511V6.71521C6.94873 6.51521 6.8495 6.31519 6.55188 6.31519Z" fill="white"/>
<path d="M4.2704 7.91602H3.47677C3.27836 7.91602 3.07992 8.11604 3.07992 8.31604V8.71606C3.07992 8.91606 3.27836 9.11597 3.47677 9.11597H4.2704C4.46882 9.11597 4.66725 8.91606 4.66725 8.71606V8.31604C4.66725 8.11604 4.46882 7.91602 4.2704 7.91602Z" fill="white"/>
<path d="M6.55188 7.91602H5.75825C5.55984 7.91602 5.36146 8.11604 5.36146 8.31604V8.71606C5.36146 8.91606 5.55984 9.11597 5.75825 9.11597H6.55188C6.75029 9.11597 6.94873 8.91606 6.94873 8.71606V8.31604C6.94873 8.11604 6.8495 7.91602 6.55188 7.91602Z" fill="white"/>
<path d="M2.68297 9.81717C2.28615 9.81717 1.88934 9.41689 1.88934 9.01667V3.91379H10.421V5.91493C10.7186 5.91493 10.917 6.01494 11.2146 6.115V2.41294C11.2146 1.51243 10.5202 0.812059 9.62738 0.812059V1.61244C9.62738 2.01267 9.23057 2.41294 8.83374 2.41294C8.43692 2.41294 8.04005 2.01267 8.04005 1.61244V0.812059H6.84963V1.61244C6.84963 2.01267 6.45276 2.41294 6.05593 2.41294C5.65911 2.41294 5.2623 2.01267 5.2623 1.61244V0.812059H4.07182V1.61244C4.07182 2.01267 3.675 2.41294 3.27818 2.41294C2.88136 2.41294 2.48455 2.01267 2.48455 1.61244V0.812059C1.59169 0.812059 0.897278 1.51243 0.897278 2.41294V9.01667C0.897278 9.91718 1.59169 10.6176 2.48455 10.6176H7.14723C7.04803 10.4174 6.94883 10.1173 6.84963 9.81717H2.68297Z" fill="white"/>
<path d="M10.1232 6.31519C8.63512 6.31519 7.44464 7.51582 7.44464 9.01667C7.44464 10.5175 8.63512 11.7183 10.1232 11.7183C11.6113 11.7183 12.8018 10.5175 12.8018 9.01667C12.8018 7.51582 11.6113 6.31519 10.1232 6.31519ZM10.1232 11.0178C9.03195 11.0178 8.13909 10.1173 8.13909 9.01667C8.13909 7.91605 9.03195 7.01553 10.1232 7.01553C11.2145 7.01553 12.1073 7.91605 12.1073 9.01667C12.0081 10.1173 11.1153 11.0178 10.1232 11.0178Z" fill="white"/>
<path d="M11.6111 9.11651C11.6111 9.31662 11.4126 9.51676 11.2142 9.51676H10.4206V10.3173C10.4206 10.5174 10.2221 10.7175 10.0237 10.7175C9.82531 10.7175 9.62694 10.5174 9.62694 10.3173V9.51676H8.8333C8.63489 9.51676 8.43645 9.31662 8.43645 9.11651C8.43645 8.9164 8.63489 8.71638 8.8333 8.71638H9.62694V7.91588C9.62694 7.71576 9.82531 7.51562 10.0237 7.51562C10.2221 7.51562 10.4206 7.71576 10.4206 7.91588V8.71638H11.2142C11.5118 8.71638 11.6111 8.81634 11.6111 9.11651Z" fill="white"/>
</svg>
