<svg width="10" height="10" viewBox="0 0 10 10" fill="none" xmlns="http://www.w3.org/2000/svg">
<path d="M1.70001 9.20007H7.20001C7.70001 9.20007 8.10004 8.80005 8.10004 8.30005V2.80005C8.10004 2.30005 7.70001 1.90002 7.20001 1.90002H1.70001C1.20001 1.90002 0.800049 2.30005 0.800049 2.80005V8.30005C0.800049 8.80005 1.20001 9.20007 1.70001 9.20007ZM2.60004 5.1001H4V3.70007H4.90002V5.1001H6.30005V6H4.90002V7.40002H4V6H2.60004V5.1001Z" fill="#6D6D6D"/>
<path d="M9 0.100098H3.5V1H9V6.5H9.90002V1C9.90002 0.5 9.5 0.100098 9 0.100098Z" fill="#6D6D6D"/>
</svg>
