<svg width="11" height="10" viewBox="0 0 11 10" fill="none" xmlns="http://www.w3.org/2000/svg">
<path d="M0.600037 9C0.600037 9.5 1 9.90002 1.5 9.90002H2.70001L0.5 7.70007V9H0.600037Z" fill="#6D6D6D"/>
<path d="M9.80002 2.20002L8.30002 0.700024C7.90002 0.300024 7.39998 0.300024 6.99998 0.700024L6.9 0.8C6.7 1 6.7 1.29995 6.9 1.49995L9.10001 3.70002C9.30001 3.90002 9.60002 3.90002 9.80002 3.70002L9.9 3.60005C10.2 3.20005 10.2 2.60002 9.80002 2.20002Z" fill="#6D6D6D"/>
<path d="M6.19999 2.20005C5.99999 2.00005 5.69998 2.00005 5.49998 2.20005L1.19999 6.49998C0.999988 6.69998 0.999988 7.00005 1.19999 7.20005L3.4 9.4C3.6 9.6 3.90001 9.6 4.10001 9.4L8.4 5.10007C8.6 4.90007 8.6 4.6 8.4 4.4L6.19999 2.20005Z" fill="#6D6D6D"/>
</svg>
