<svg width="14" height="9" viewBox="0 0 14 9" fill="none" xmlns="http://www.w3.org/2000/svg">
<path d="M12.7345 3.79632C11.3456 2.29546 9.16308 0.69458 6.88135 0.69458C4.59961 0.69458 2.41706 2.29546 1.02818 3.79632C0.631354 4.19654 0.631354 4.89694 1.02818 5.29717C2.31785 6.79802 4.59958 8.3989 6.7821 8.3989H6.98053C9.16306 8.3989 11.4448 6.79802 12.7345 5.29717C13.1313 4.89694 13.1313 4.19654 12.7345 3.79632ZM4.50038 4.49666C4.50038 3.19593 5.59167 2.09528 6.88135 2.09528C8.17102 2.09528 9.26225 3.19593 9.26225 4.49666C9.26225 5.7974 8.17102 6.89805 6.88135 6.89805C5.59167 6.89805 4.50038 5.89746 4.50038 4.49666Z" fill="white"/>
<path d="M6.88159 5.49723C7.42949 5.49723 7.87365 5.04926 7.87365 4.49666C7.87365 3.94406 7.42949 3.49609 6.88159 3.49609C6.33369 3.49609 5.88953 3.94406 5.88953 4.49666C5.88953 5.04926 6.33369 5.49723 6.88159 5.49723Z" fill="white"/>
</svg>
