<svg width="48" height="49" viewBox="0 0 48 49" fill="none" xmlns="http://www.w3.org/2000/svg">
<path d="M23.8211 10.7795C27.0108 10.7795 29.9016 11.9802 32.1943 13.6812L39.3713 6.77727C35.384 2.97511 29.9016 0.673828 23.8211 0.673828C14.8498 0.673828 6.77563 5.87673 2.78839 13.381L10.8625 19.7847C12.8561 14.5817 17.8402 10.7795 23.8211 10.7795Z" fill="#F44336"/>
<path d="M47.2463 27.5894C47.2463 26.6889 47.5454 25.5882 47.5454 24.6877C47.5454 22.9868 47.2463 21.1857 46.9472 19.7849H23.921V29.5905H36.5805C35.3843 32.192 33.6897 34.4933 31.397 36.2943L39.4712 42.6979C43.7574 38.5956 46.6482 33.3927 47.2463 27.5894Z" fill="#2196F3"/>
<path d="M10.065 24.6874C10.065 22.9864 10.3641 21.4856 10.9622 20.0848L2.88807 13.6812C1.19349 16.883 0.296387 20.5851 0.296387 24.6874C0.296387 28.6897 1.19349 32.1917 2.88807 35.6936L10.9622 29.29C10.2644 27.8892 10.065 26.1883 10.065 24.6874Z" fill="#FFC107"/>
<path d="M23.8211 38.5956C17.7405 38.5956 12.8561 34.7934 10.8625 29.2903L2.78839 35.6939C6.77563 43.1982 14.6504 48.4011 23.8211 48.4011C29.9016 48.4011 35.384 46.0999 39.3713 42.5979L31.2971 36.1942C29.3035 37.6951 26.7118 38.5956 23.8211 38.5956Z" fill="#00B060"/>
<path opacity="0.1" d="M23.821 47.9005C16.9431 47.9005 10.5635 44.9989 6.27722 40.3962C10.5635 45.299 16.9431 48.5008 23.821 48.5008C30.699 48.5008 37.0786 45.5992 41.3649 40.6965C36.7796 44.9989 30.7987 47.9005 23.821 47.9005Z" fill="black"/>
<path opacity="0.1" d="M23.8212 29.0898V29.5898H36.5804L36.7797 29.0898H23.8212Z" fill="black"/>
<path opacity="0.2" d="M23.8212 19.7849V20.3849H47.1465C47.1465 20.0849 47.1465 20.0849 47.1465 19.7849H23.8212Z" fill="white"/>
<path d="M46.9473 19.7847H23.921V29.5904H36.5805C34.5869 34.7933 29.7025 38.5955 23.921 38.5955C16.4449 38.5955 10.0653 32.492 10.0653 24.6875C10.0653 16.8831 16.1459 10.7796 23.921 10.7796C26.8117 10.7796 29.1044 11.6802 31.3971 13.081C31.6961 13.3812 31.9952 13.3811 32.2942 13.6813L39.4712 6.77735H39.1722C35.185 3.27537 29.7026 0.974072 23.622 0.974072C10.6635 0.974072 -0.00244141 11.6802 -0.00244141 24.6875C-0.00244141 37.6949 10.6635 48.401 23.622 48.401C35.6834 48.401 45.5517 39.3959 46.9473 27.5892C46.9473 26.6887 47.2464 25.5881 47.2464 24.6875C47.4457 22.9866 47.2463 21.1855 46.9473 19.7847Z" fill="url(#paint0_linear_1_424)"/>
<path opacity="0.1" d="M31.3972 12.5808C29.4036 11.18 26.8119 10.2794 23.9211 10.2794C16.445 10.2794 10.0654 16.3829 10.0654 24.1873V24.4874C10.0654 16.9832 16.445 10.8797 23.9211 10.8797C26.8119 10.8797 29.1045 11.7803 31.3972 13.1811C31.6962 13.4812 31.9953 13.4812 32.2943 13.7814L39.4713 6.87744L32.2943 13.2811C31.8956 12.8809 31.5965 12.8809 31.3972 12.5808Z" fill="black"/>
<path opacity="0.2" d="M23.8214 1.27414C29.6029 1.27414 35.0854 3.5755 39.0727 7.07749L39.3716 6.77727L39.0727 6.47705C35.0854 2.97506 29.6029 0.673828 23.8214 0.673828C10.8629 0.673828 0.197083 11.3799 0.197083 24.3872V24.6875C0.496125 11.9802 10.8629 1.27414 23.8214 1.27414Z" fill="white"/>
<defs>
<linearGradient id="paint0_linear_1_424" x1="0.213268" y1="24.7073" x2="47.4947" y2="24.7073" gradientUnits="userSpaceOnUse">
<stop stop-color="white" stop-opacity="0.2"/>
<stop offset="1" stop-color="white" stop-opacity="0"/>
</linearGradient>
</defs>
</svg>
