<svg width="21" height="22" viewBox="0 0 21 22" fill="none" xmlns="http://www.w3.org/2000/svg">
<path d="M16.5456 5.03482H4.17529V17.4419H16.5456V5.03482Z" fill="white"/>
<path d="M11.3584 9.43735L11.8572 10.2379L12.7551 9.63754V14.3402H13.7527V8.13668H12.9545L11.3584 9.43735Z" fill="#1E88E5"/>
<path d="M9.76248 11.0381C10.1615 10.7379 10.361 10.2377 10.361 9.73745C10.361 8.73688 9.46315 7.93637 8.46555 7.93637C7.56771 7.93637 6.76972 8.53674 6.5702 9.3372L7.46795 9.53726C7.56771 9.13703 7.96677 8.93694 8.36581 8.93694C8.86461 8.93694 9.36342 9.33722 9.36342 9.73745C9.36342 10.1377 8.96438 10.5378 8.36581 10.5378H7.76727V11.5384H8.36581C8.96438 11.5384 9.46315 11.9387 9.46315 12.4389C9.46315 12.9392 8.96438 13.3395 8.36581 13.3395C7.86701 13.3395 7.36823 13.0393 7.26847 12.539L6.37061 12.7392C6.47037 13.6397 7.36821 14.34 8.36581 14.34C9.46318 14.34 10.361 13.5396 10.361 12.4389C10.4608 11.9387 10.2613 11.4383 9.76248 11.0381Z" fill="#1E88E5"/>
<path d="M15.9469 21.3439H4.77383L4.17529 19.0426L4.77383 16.8413H15.9469L16.5456 19.0426L15.9469 21.3439Z" fill="#FBC02D"/>
<path d="M18.2413 17.3419L20.436 16.8416V5.53511L18.2413 5.03482L15.9468 5.53511V16.8416L18.2413 17.3419Z" fill="#4CAF50"/>
<path d="M15.9471 5.53497L16.5458 3.23373L15.9471 0.932373H1.88094C0.983093 0.932373 0.185059 1.7329 0.185059 2.63341V16.7414L2.47947 17.3417L4.77401 16.7414V5.43494H15.9471V5.53497Z" fill="#1E88E5"/>
<path d="M15.9468 16.8413V21.3439L20.436 16.8413H15.9468Z" fill="#E53935"/>
<path d="M18.8401 1.03247H16.0469V5.53503H20.5361V2.73351C20.4363 1.833 19.7379 1.03247 18.8401 1.03247Z" fill="#1565C0"/>
<path d="M1.98103 21.3439H4.77437V16.8413H0.285156V19.643C0.285156 20.5435 0.98343 21.3439 1.98103 21.3439Z" fill="#1565C0"/>
</svg>
