<svg width="15" height="15" viewBox="0 0 15 15" fill="none" xmlns="http://www.w3.org/2000/svg">
<path fill-rule="evenodd" clip-rule="evenodd" d="M2.79956 3.90002C1.99956 4.90002 1.49976 6.2 1.49976 7.5C1.49976 10.7 4.09956 13.2999 7.29956 13.2999C8.69956 13.2999 9.89966 12.8 10.8997 12L2.79956 3.90002ZM3.69971 3L11.8997 11.2C12.6997 10.2 13.1997 8.89998 13.1997 7.59998C13.1997 4.39998 10.5997 1.79993 7.39966 1.79993C5.89966 1.79993 4.69971 2.2 3.69971 3ZM7.29956 14.7C3.39956 14.7 0.199707 11.5 0.199707 7.59998C0.199707 3.69998 3.39956 0.5 7.29956 0.5C11.1996 0.5 14.3997 3.69998 14.3997 7.59998C14.3997 11.5 11.1996 14.7 7.29956 14.7Z" fill="#6D6D6D"/>
</svg>
