<svg width="13" height="12" viewBox="0 0 13 12" fill="none" xmlns="http://www.w3.org/2000/svg">
<path d="M1.86269 6.69767C1.36667 6.69767 0.870636 6.29744 0.870636 5.6971C0.870636 5.19682 1.26746 4.69653 1.86269 4.69653C2.45793 4.69653 2.85475 5.09676 2.85475 5.6971C2.75555 6.19739 2.35872 6.69767 1.86269 6.69767ZM1.86269 5.19682C1.56508 5.19682 1.36667 5.39693 1.36667 5.6971C1.36667 5.99727 1.56508 6.19739 1.86269 6.19739C2.16031 6.19739 2.35872 5.99727 2.35872 5.6971C2.35872 5.39693 2.16031 5.19682 1.86269 5.19682Z" fill="white"/>
<path d="M4.24402 8.1984C3.74799 8.1984 3.25196 7.79817 3.25196 7.19783C3.25196 6.69755 3.64878 6.19727 4.24402 6.19727C4.83925 6.19727 5.23608 6.59749 5.23608 7.19783C5.23608 7.79817 4.74005 8.1984 4.24402 8.1984ZM4.24402 6.79758C3.9464 6.79758 3.74799 6.9977 3.74799 7.29787C3.74799 7.59804 3.9464 7.79815 4.24402 7.79815C4.54164 7.79815 4.74005 7.59804 4.74005 7.29787C4.74005 6.9977 4.54164 6.79758 4.24402 6.79758Z" fill="white"/>
<path d="M4.24402 4.9965C3.74799 4.9965 3.25196 4.59627 3.25196 3.99593C3.25196 3.49565 3.64878 2.99536 4.24402 2.99536C4.83925 2.99536 5.23608 3.39559 5.23608 3.99593C5.23608 4.59627 4.74005 4.9965 4.24402 4.9965ZM4.24402 3.49565C3.9464 3.49565 3.74799 3.69576 3.74799 3.99593C3.74799 4.2961 3.9464 4.49621 4.24402 4.49621C4.54164 4.49621 4.74005 4.2961 4.74005 3.99593C4.74005 3.69576 4.54164 3.49565 4.24402 3.49565Z" fill="white"/>
<path d="M1.86269 9.89933C1.36667 9.89933 0.870636 9.4991 0.870636 8.89876C0.870636 8.29842 1.26746 7.89819 1.86269 7.89819C2.45793 7.89819 2.85475 8.29842 2.85475 8.89876C2.85475 9.4991 2.35872 9.89933 1.86269 9.89933ZM1.86269 8.39848C1.56508 8.39848 1.36667 8.59859 1.36667 8.89876C1.36667 9.19893 1.56508 9.39905 1.86269 9.39905C2.16031 9.39905 2.35872 9.19893 2.35872 8.89876C2.35872 8.59859 2.16031 8.39848 1.86269 8.39848Z" fill="white"/>
<path d="M6.82298 6.69767C6.32695 6.69767 5.83092 6.29744 5.83092 5.6971C5.83092 5.19682 6.22775 4.69653 6.82298 4.69653C7.31901 4.69653 7.81504 5.09676 7.81504 5.6971C7.71584 6.19739 7.31901 6.69767 6.82298 6.69767ZM6.82298 5.19682C6.52537 5.19682 6.32695 5.39693 6.32695 5.6971C6.32695 5.99727 6.52537 6.19739 6.82298 6.19739C7.1206 6.19739 7.31901 5.99727 7.31901 5.6971C7.31901 5.39693 7.02139 5.19682 6.82298 5.19682Z" fill="white"/>
<path d="M1.86269 3.49552C1.36667 3.49552 0.870636 3.09529 0.870636 2.49495C0.870636 1.99467 1.26746 1.49438 1.86269 1.49438C2.45793 1.49438 2.85475 1.89461 2.85475 2.49495C2.75555 2.99524 2.35872 3.49552 1.86269 3.49552ZM1.86269 1.99467C1.56508 1.99467 1.36667 2.19478 1.36667 2.49495C1.36667 2.79512 1.56508 2.99524 1.86269 2.99524C2.16031 2.99524 2.35872 2.79512 2.35872 2.49495C2.35872 2.19478 2.16031 1.99467 1.86269 1.99467Z" fill="white"/>
<path d="M5.53369 5.89685H2.95436C2.85515 5.89685 2.75594 5.7969 2.75594 5.6969C2.75594 5.5969 2.85515 5.49683 2.95436 5.49683H5.53369C5.63289 5.49683 5.73211 5.5969 5.73211 5.6969C5.73211 5.7969 5.63289 5.89685 5.53369 5.89685Z" fill="white"/>
<path d="M6.4262 7.69751H5.53332C5.43412 7.69751 5.3349 7.59744 5.3349 7.49744C5.3349 7.39744 5.43412 7.29749 5.53332 7.29749H6.32696L6.62456 6.79749C6.72377 6.69749 6.82302 6.69751 6.92223 6.69751C7.02144 6.79751 7.02141 6.89744 7.02141 6.99744L6.62456 7.59741L6.4262 7.69751Z" fill="white"/>
<path d="M4.04481 9.19849H3.15193C3.05272 9.19849 2.95357 9.09841 2.95357 8.99841C2.95357 8.89841 3.05272 8.79846 3.15193 8.79846H3.94563L4.24323 8.29846C4.34244 8.19846 4.44163 8.19849 4.54084 8.19849C4.64004 8.29849 4.64002 8.39841 4.64002 8.49841L4.24323 9.09839L4.04481 9.19849Z" fill="white"/>
<path d="M4.34284 2.99487C4.24363 2.99487 4.24362 2.9949 4.14442 2.8949L3.84681 2.3949H3.05318C2.95397 2.3949 2.85475 2.29495 2.85475 2.19495C2.85475 2.09495 2.95397 1.99487 3.05318 1.99487H3.94605L4.14442 2.09485L4.54126 2.69495C4.64047 2.79495 4.54129 2.89487 4.44208 2.99487C4.44208 2.99487 4.44204 2.99487 4.34284 2.99487Z" fill="white"/>
<path d="M6.82299 4.79614C6.72378 4.79614 6.72377 4.79617 6.62456 4.69617L6.32696 4.19617H5.53332C5.43412 4.19617 5.3349 4.09609 5.3349 3.99609C5.3349 3.89609 5.43412 3.79614 5.53332 3.79614H6.4262L6.62456 3.89612L7.02141 4.49609C7.12062 4.59609 7.02144 4.69614 6.92223 4.79614C6.82302 4.79614 6.82299 4.79614 6.82299 4.79614Z" fill="white"/>
<path fill-rule="evenodd" clip-rule="evenodd" d="M8.11301 11.2002L7.31937 9.9994C7.12096 9.9994 6.82333 9.9994 6.62492 9.9994L5.93053 11.2002C5.4345 11.1001 5.03765 11 4.54162 10.7999V9.29905L5.33526 8.09829C6.0297 8.49852 7.02176 8.69868 7.8154 8.39851C9.4027 7.89823 10.1963 6.19721 9.6011 4.59631C9.10507 3.09545 7.41858 2.19502 5.83129 2.79536C5.63288 2.89541 5.43449 2.9954 5.23608 3.09545L4.44244 1.89482L4.24402 0.594034C4.44243 0.493977 4.74006 0.393994 4.93847 0.293937C5.13688 0.19388 5.33527 0.193807 5.53368 0.09375L6.32732 1.2945C6.52573 1.2945 6.82336 1.2945 7.02177 1.2945L7.71622 0.09375C8.21225 0.193807 8.60904 0.293888 9.10507 0.494002L9.00589 1.89482C9.2043 1.99488 9.40269 2.09496 9.6011 2.29507L10.8908 1.69476C11.1884 1.99493 11.486 2.39513 11.7836 2.79536L10.8908 3.89596C10.8908 3.99601 10.99 4.09612 10.99 4.19618C10.99 4.29623 11.0892 4.39622 11.0892 4.49627L12.4781 4.79649C12.5773 5.29678 12.5773 5.69703 12.4781 6.19731L11.0892 6.59744C11.0892 6.79755 10.99 6.99774 10.8908 7.29791L11.8829 8.29848C11.6845 8.69871 11.3868 9.09889 11.0892 9.49911L9.79952 8.99883C9.60111 9.19894 9.40272 9.29902 9.20431 9.39908L9.40273 10.7999C9.20432 10.9 8.90669 10.9999 8.70828 11.1C8.50987 11.1 8.31142 11.2002 8.11301 11.2002Z" fill="white"/>
</svg>