<svg width="10" height="11" viewBox="0 0 10 11" fill="none" xmlns="http://www.w3.org/2000/svg">
<path d="M8.40001 7.20013C8.00001 7.20013 7.60004 7.40013 7.30004 7.70013L3.80004 5.70013C3.90004 5.40013 3.90004 5.20008 3.80004 4.90008L7.30004 2.90008C7.90004 3.50008 8.79999 3.50008 9.49999 2.90008C10.1 2.30008 10.1 1.40013 9.49999 0.700133C8.89999 0.000133127 8.00004 0.100133 7.30004 0.700133C6.90004 1.10013 6.70001 1.70013 6.90001 2.20013L3.40001 4.20013C2.80001 3.60013 1.8 3.60013 1.2 4.20013C0.6 4.80013 0.6 5.80008 1.2 6.40008C1.8 7.00008 2.80001 7.00008 3.40001 6.40008L6.90001 8.40008C6.70001 9.20008 7.19999 10.1001 7.99999 10.3001C8.79999 10.5001 9.70001 10.0001 9.90001 9.20013C10.1 8.40013 9.60004 7.50011 8.80004 7.30011C8.70004 7.30011 8.50001 7.20013 8.40001 7.20013Z" fill="#6D6D6D"/>
</svg>
