<svg width="44" height="28" viewBox="0 0 44 28" fill="none" xmlns="http://www.w3.org/2000/svg">
<path d="M14.2998 11.2001L15.8999 7.80005C10.6999 7.90005 5.8998 11.0001 4.2998 15.6001C4.1998 16.0001 4.1 16.3001 4 16.7001L0.299805 15.8C0.399805 15.3 0.599805 14.8 0.799805 14.3C2.9998 8.10005 9.19985 4.10012 16.0999 4.00012C16.4999 4.00012 16.7999 3.70005 16.8999 3.30005V0.400146L24 7.00012C24.4 7.40012 24.3 8.10005 23.7 8.30005L14.2998 11.2001Z" fill="#631363"/>
<path d="M29.5002 17.2002L27.9001 20.6002C33.1001 20.5002 37.9002 17.4002 39.5002 12.8002C39.6002 12.4002 39.7 12.1002 39.8 11.7002L43.5002 12.6002C43.4002 13.1002 43.2002 13.6002 43.0002 14.1002C40.8002 20.3002 34.6002 24.3003 27.7002 24.4003C27.3002 24.4003 27.0001 24.7002 26.9001 25.1002V28.0002L19.8 21.4003C19.4 21.0003 19.5001 20.3002 20.1001 20.1002L29.5002 17.2002Z" fill="#631363"/>
</svg>
