<svg width="5" height="16" viewBox="0 0 5 16" fill="none" xmlns="http://www.w3.org/2000/svg">
<path d="M2.83763 4.00227C3.93343 4.00227 4.82175 3.10633 4.82175 2.00114C4.82175 0.895939 3.93343 0 2.83763 0C1.74183 0 0.853516 0.895939 0.853516 2.00114C0.853516 3.10633 1.74183 4.00227 2.83763 4.00227Z" fill="#6D6D6D"/>
<path d="M2.83763 10.0057C3.93343 10.0057 4.82175 9.10975 4.82175 8.00455C4.82175 6.89936 3.93343 6.00342 2.83763 6.00342C1.74183 6.00342 0.853516 6.89936 0.853516 8.00455C0.853516 9.10975 1.74183 10.0057 2.83763 10.0057Z" fill="#6D6D6D"/>
<path d="M2.83763 16.0091C3.93343 16.0091 4.82175 15.1132 4.82175 14.008C4.82175 12.9028 3.93343 12.0068 2.83763 12.0068C1.74183 12.0068 0.853516 12.9028 0.853516 14.008C0.853516 15.1132 1.74183 16.0091 2.83763 16.0091Z" fill="#6D6D6D"/>
</svg>
