<svg width="11" height="8" viewBox="0 0 11 8" fill="none" xmlns="http://www.w3.org/2000/svg">
<path d="M7 7.80005H3.70001C1.70001 7.80005 0 6.1001 0 4.1001C0 2.1001 1.70001 0.400024 3.70001 0.400024H7C9 0.400024 10.7 2.1001 10.7 4.1001C10.7 6.1001 9.1 7.80005 7 7.80005ZM3.70001 1.70007C2.40001 1.70007 1.30005 2.8001 1.30005 4.1001C1.30005 5.4001 2.40001 6.5 3.70001 6.5H7C8.3 6.5 9.40002 5.4001 9.40002 4.1001C9.40002 2.8001 8.3 1.70007 7 1.70007H3.70001Z" fill="#6D6D6D"/>
<path d="M3.80007 5C5.10007 5 5.10007 3 3.80007 3C2.50007 3 2.50007 5 3.80007 5Z" fill="#6D6D6D"/>
</svg>
