<svg width="9" height="11" viewBox="0 0 9 11" fill="none" xmlns="http://www.w3.org/2000/svg">
<path d="M7.5 3.70007H1.90002C1.70002 3.70007 1.5 3.9001 1.5 4.1001L2.20001 9.40002C2.30001 9.80002 2.6 10.1001 3 10.1001H6.5C6.9 10.1001 7.30005 9.80002 7.30005 9.40002L8 4.1001C7.9 3.8001 7.8 3.70007 7.5 3.70007Z" fill="#AA0F0F"/>
<path d="M7.90002 1.20007H5.90002C5.90002 0.800073 5.50004 0.400024 5.10004 0.400024H4.30005C3.90005 0.400024 3.5 0.800073 3.5 1.20007H1.5C1.1 1.20007 0.700012 1.6 0.700012 2V2.40002C0.700012 2.60002 0.900037 2.80005 1.10004 2.80005H8.5C8.7 2.80005 8.90002 2.60002 8.90002 2.40002V2C8.70002 1.6 8.40002 1.20007 7.90002 1.20007Z" fill="#AA0F0F"/>
</svg>
